<?xml version="1.0" encoding="UTF-8" standalone="no"?>
<!DOCTYPE svg PUBLIC "-//W3C//DTD SVG 1.1//EN"
 "http://www.w3.org/Graphics/SVG/1.1/DTD/svg11.dtd">
<!-- Generated by graphviz version 15.0.0 (20260523.1842)
 -->
<!-- Title: ProjectStructure Pages: 1 -->
<svg width="2074pt" height="494pt"
 viewBox="0.00 0.00 2074.00 494.00" xmlns="http://www.w3.org/2000/svg" xmlns:xlink="http://www.w3.org/1999/xlink">
<g id="graph0" class="graph" transform="scale(1 1) rotate(0) translate(4 490)">
<title>ProjectStructure</title>
<polygon fill="white" stroke="none" points="-4,4 -4,-490 2069.95,-490 2069.95,4 -4,4"/>
<!-- Diploma_Project -->
<g id="node1" class="node">
<title>Diploma_Project</title>
<path fill="#4c72b0" stroke="black" d="M1492.07,-486C1492.07,-486 1337.88,-486 1337.88,-486 1331.88,-486 1325.88,-480 1325.88,-474 1325.88,-474 1325.88,-441 1325.88,-441 1325.88,-435 1331.88,-429 1337.88,-429 1337.88,-429 1492.07,-429 1492.07,-429 1498.07,-429 1504.07,-435 1504.07,-441 1504.07,-441 1504.07,-474 1504.07,-474 1504.07,-480 1498.07,-486 1492.07,-486"/>
<text xml:space="preserve" text-anchor="middle" x="1414.97" y="-450.9" font-family="Arial" font-size="18.00" fill="white">Diploma_Project/</text>
</g>
<!-- Diploma_Project_data -->
<g id="node2" class="node">
<title>Diploma_Project_data</title>
<path fill="#55a868" stroke="black" d="M826.45,-343C826.45,-343 767.5,-343 767.5,-343 761.5,-343 755.5,-337 755.5,-331 755.5,-331 755.5,-298 755.5,-298 755.5,-292 761.5,-286 767.5,-286 767.5,-286 826.45,-286 826.45,-286 832.45,-286 838.45,-292 838.45,-298 838.45,-298 838.45,-331 838.45,-331 838.45,-337 832.45,-343 826.45,-343"/>
<text xml:space="preserve" text-anchor="middle" x="796.97" y="-307.9" font-family="Arial" font-size="18.00">data/</text>
</g>
<!-- Diploma_Project&#45;&gt;Diploma_Project_data -->
<g id="edge1" class="edge">
<title>Diploma_Project&#45;&gt;Diploma_Project_data</title>
<path fill="none" stroke="black" d="M1325.44,-436.07C1194.73,-406.25 955.71,-351.72 849.85,-327.56"/>
<polygon fill="black" stroke="black" points="850.82,-324.2 840.29,-325.38 849.27,-331.02 850.82,-324.2"/>
</g>
<!-- Diploma_Project_eda -->
<g id="node16" class="node">
<title>Diploma_Project_eda</title>
<path fill="#55a868" stroke="black" d="M1181.82,-343C1181.82,-343 1128.12,-343 1128.12,-343 1122.12,-343 1116.12,-337 1116.12,-331 1116.12,-331 1116.12,-298 1116.12,-298 1116.12,-292 1122.12,-286 1128.12,-286 1128.12,-286 1181.82,-286 1181.82,-286 1187.82,-286 1193.82,-292 1193.82,-298 1193.82,-298 1193.82,-331 1193.82,-331 1193.82,-337 1187.82,-343 1181.82,-343"/>
<text xml:space="preserve" text-anchor="middle" x="1154.97" y="-307.9" font-family="Arial" font-size="18.00">eda/</text>
</g>
<!-- Diploma_Project&#45;&gt;Diploma_Project_eda -->
<g id="edge15" class="edge">
<title>Diploma_Project&#45;&gt;Diploma_Project_eda</title>
<path fill="none" stroke="black" d="M1363.61,-428.64C1317.24,-403.5 1249.5,-366.76 1203.9,-342.03"/>
<polygon fill="black" stroke="black" points="1205.74,-339.05 1195.29,-337.36 1202.41,-345.2 1205.74,-339.05"/>
</g>
<!-- Diploma_Project_notebooks -->
<g id="node19" class="node">
<title>Diploma_Project_notebooks</title>
<path fill="#55a868" stroke="black" d="M1370.07,-343C1370.07,-343 1263.88,-343 1263.88,-343 1257.88,-343 1251.88,-337 1251.88,-331 1251.88,-331 1251.88,-298 1251.88,-298 1251.88,-292 1257.88,-286 1263.88,-286 1263.88,-286 1370.07,-286 1370.07,-286 1376.07,-286 1382.07,-292 1382.07,-298 1382.07,-298 1382.07,-331 1382.07,-331 1382.07,-337 1376.07,-343 1370.07,-343"/>
<text xml:space="preserve" text-anchor="middle" x="1316.97" y="-307.9" font-family="Arial" font-size="18.00">notebooks/</text>
</g>
<!-- Diploma_Project&#45;&gt;Diploma_Project_notebooks -->
<g id="edge18" class="edge">
<title>Diploma_Project&#45;&gt;Diploma_Project_notebooks</title>
<path fill="none" stroke="black" d="M1395.61,-428.64C1380.51,-406.92 1359.4,-376.54 1342.85,-352.73"/>
<polygon fill="black" stroke="black" points="1345.74,-350.76 1337.16,-344.54 1339.99,-354.75 1345.74,-350.76"/>
</g>
<!-- Diploma_Project_presentation -->
<g id="node20" class="node">
<title>Diploma_Project_presentation</title>
<path fill="#55a868" stroke="black" d="M1573.95,-343C1573.95,-343 1452,-343 1452,-343 1446,-343 1440,-337 1440,-331 1440,-331 1440,-298 1440,-298 1440,-292 1446,-286 1452,-286 1452,-286 1573.95,-286 1573.95,-286 1579.95,-286 1585.95,-292 1585.95,-298 1585.95,-298 1585.95,-331 1585.95,-331 1585.95,-337 1579.95,-343 1573.95,-343"/>
<text xml:space="preserve" text-anchor="middle" x="1512.97" y="-307.9" font-family="Arial" font-size="18.00">presentation/</text>
</g>
<!-- Diploma_Project&#45;&gt;Diploma_Project_presentation -->
<g id="edge19" class="edge">
<title>Diploma_Project&#45;&gt;Diploma_Project_presentation</title>
<path fill="none" stroke="black" d="M1434.34,-428.64C1449.44,-406.92 1470.55,-376.54 1487.1,-352.73"/>
<polygon fill="black" stroke="black" points="1489.96,-354.75 1492.79,-344.54 1484.21,-350.76 1489.96,-354.75"/>
</g>
<!-- Diploma_Project_reports -->
<g id="node21" class="node">
<title>Diploma_Project_reports</title>
<path fill="#55a868" stroke="black" d="M1735.95,-343C1735.95,-343 1656,-343 1656,-343 1650,-343 1644,-337 1644,-331 1644,-331 1644,-298 1644,-298 1644,-292 1650,-286 1656,-286 1656,-286 1735.95,-286 1735.95,-286 1741.95,-286 1747.95,-292 1747.95,-298 1747.95,-298 1747.95,-331 1747.95,-331 1747.95,-337 1741.95,-343 1735.95,-343"/>
<text xml:space="preserve" text-anchor="middle" x="1695.97" y="-307.9" font-family="Arial" font-size="18.00">reports/</text>
</g>
<!-- Diploma_Project&#45;&gt;Diploma_Project_reports -->
<g id="edge20" class="edge">
<title>Diploma_Project&#45;&gt;Diploma_Project_reports</title>
<path fill="none" stroke="black" d="M1470.49,-428.64C1517.53,-405.04 1584.92,-371.22 1633.77,-346.71"/>
<polygon fill="black" stroke="black" points="1635.17,-349.92 1642.54,-342.31 1632.03,-343.67 1635.17,-349.92"/>
</g>
<!-- Diploma_Project_src -->
<g id="node23" class="node">
<title>Diploma_Project_src</title>
<path fill="#55a868" stroke="black" d="M1877.2,-343C1877.2,-343 1828.75,-343 1828.75,-343 1822.75,-343 1816.75,-337 1816.75,-331 1816.75,-331 1816.75,-298 1816.75,-298 1816.75,-292 1822.75,-286 1828.75,-286 1828.75,-286 1877.2,-286 1877.2,-286 1883.2,-286 1889.2,-292 1889.2,-298 1889.2,-298 1889.2,-331 1889.2,-331 1889.2,-337 1883.2,-343 1877.2,-343"/>
<text xml:space="preserve" text-anchor="middle" x="1852.97" y="-307.9" font-family="Arial" font-size="18.00">src/</text>
</g>
<!-- Diploma_Project&#45;&gt;Diploma_Project_src -->
<g id="edge22" class="edge">
<title>Diploma_Project&#45;&gt;Diploma_Project_src</title>
<path fill="none" stroke="black" d="M1504.21,-429.7C1577.7,-407.35 1684.46,-374.23 1776.97,-343 1786.24,-339.87 1796.1,-336.41 1805.54,-333.02"/>
<polygon fill="black" stroke="black" points="1806.73,-336.32 1814.94,-329.62 1804.35,-329.73 1806.73,-336.32"/>
</g>
<!-- Diploma_Project_data_interim -->
<g id="node3" class="node">
<title>Diploma_Project_data_interim</title>
<path fill="#64b5cd" stroke="black" d="M499.82,-200C499.82,-200 422.12,-200 422.12,-200 416.12,-200 410.12,-194 410.12,-188 410.12,-188 410.12,-155 410.12,-155 410.12,-149 416.12,-143 422.12,-143 422.12,-143 499.82,-143 499.82,-143 505.82,-143 511.82,-149 511.82,-155 511.82,-155 511.82,-188 511.82,-188 511.82,-194 505.82,-200 499.82,-200"/>
<text xml:space="preserve" text-anchor="middle" x="460.97" y="-164.9" font-family="Arial" font-size="18.00">interim/</text>
</g>
<!-- Diploma_Project_data&#45;&gt;Diploma_Project_data_interim -->
<g id="edge2" class="edge">
<title>Diploma_Project_data&#45;&gt;Diploma_Project_data_interim</title>
<path fill="none" stroke="black" d="M755.1,-295.93C696.65,-271.4 590.22,-226.74 522.68,-198.39"/>
<polygon fill="black" stroke="black" points="524.16,-195.22 513.58,-194.58 521.45,-201.67 524.16,-195.22"/>
</g>
<!-- Diploma_Project_data_processed -->
<g id="node4" class="node">
<title>Diploma_Project_data_processed</title>
<path fill="#64b5cd" stroke="black" d="M688.07,-200C688.07,-200 581.87,-200 581.87,-200 575.87,-200 569.87,-194 569.87,-188 569.87,-188 569.87,-155 569.87,-155 569.87,-149 575.87,-143 581.87,-143 581.87,-143 688.07,-143 688.07,-143 694.07,-143 700.07,-149 700.07,-155 700.07,-155 700.07,-188 700.07,-188 700.07,-194 694.07,-200 688.07,-200"/>
<text xml:space="preserve" text-anchor="middle" x="634.97" y="-164.9" font-family="Arial" font-size="18.00">processed/</text>
</g>
<!-- Diploma_Project_data&#45;&gt;Diploma_Project_data_processed -->
<g id="edge3" class="edge">
<title>Diploma_Project_data&#45;&gt;Diploma_Project_data_processed</title>
<path fill="none" stroke="black" d="M764.97,-285.64C739.34,-263.34 703.23,-231.91 675.57,-207.84"/>
<polygon fill="black" stroke="black" points="677.9,-205.22 668.06,-201.29 673.3,-210.5 677.9,-205.22"/>
</g>
<!-- Diploma_Project_data_raw -->
<g id="node5" class="node">
<title>Diploma_Project_data_raw</title>
<path fill="#64b5cd" stroke="black" d="M823.45,-200C823.45,-200 770.5,-200 770.5,-200 764.5,-200 758.5,-194 758.5,-188 758.5,-188 758.5,-155 758.5,-155 758.5,-149 764.5,-143 770.5,-143 770.5,-143 823.45,-143 823.45,-143 829.45,-143 835.45,-149 835.45,-155 835.45,-155 835.45,-188 835.45,-188 835.45,-194 829.45,-200 823.45,-200"/>
<text xml:space="preserve" text-anchor="middle" x="796.97" y="-164.9" font-family="Arial" font-size="18.00">raw/</text>
</g>
<!-- Diploma_Project_data&#45;&gt;Diploma_Project_data_raw -->
<g id="edge4" class="edge">
<title>Diploma_Project_data&#45;&gt;Diploma_Project_data_raw</title>
<path fill="none" stroke="black" d="M796.97,-285.64C796.97,-264.5 796.97,-235.15 796.97,-211.65"/>
<polygon fill="black" stroke="black" points="800.48,-211.81 796.98,-201.81 793.48,-211.81 800.48,-211.81"/>
</g>
<!-- Diploma_Project_data_stage_outputs -->
<g id="node6" class="node">
<title>Diploma_Project_data_stage_outputs</title>
<path fill="#64b5cd" stroke="black" d="M1042.07,-200C1042.07,-200 905.87,-200 905.87,-200 899.87,-200 893.87,-194 893.87,-188 893.87,-188 893.87,-155 893.87,-155 893.87,-149 899.87,-143 905.87,-143 905.87,-143 1042.07,-143 1042.07,-143 1048.07,-143 1054.07,-149 1054.07,-155 1054.07,-155 1054.07,-188 1054.07,-188 1054.07,-194 1048.07,-200 1042.07,-200"/>
<text xml:space="preserve" text-anchor="middle" x="973.97" y="-164.9" font-family="Arial" font-size="18.00">stage_outputs/</text>
</g>
<!-- Diploma_Project_data&#45;&gt;Diploma_Project_data_stage_outputs -->
<g id="edge5" class="edge">
<title>Diploma_Project_data&#45;&gt;Diploma_Project_data_stage_outputs</title>
<path fill="none" stroke="black" d="M831.94,-285.64C860.19,-263.14 900.08,-231.37 930.4,-207.21"/>
<polygon fill="black" stroke="black" points="932.25,-210.21 937.89,-201.24 927.89,-204.74 932.25,-210.21"/>
</g>
<!-- Diploma_Project_data_stage_outputs_stage1_data -->
<g id="node7" class="node">
<title>Diploma_Project_data_stage_outputs_stage1_data</title>
<path fill="#64b5cd" stroke="black" d="M133.95,-57C133.95,-57 12,-57 12,-57 6,-57 0,-51 0,-45 0,-45 0,-12 0,-12 0,-6 6,0 12,0 12,0 133.95,0 133.95,0 139.95,0 145.95,-6 145.95,-12 145.95,-12 145.95,-45 145.95,-45 145.95,-51 139.95,-57 133.95,-57"/>
<text xml:space="preserve" text-anchor="middle" x="72.97" y="-21.9" font-family="Arial" font-size="18.00">stage1_data/</text>
</g>
<!-- Diploma_Project_data_stage_outputs&#45;&gt;Diploma_Project_data_stage_outputs_stage1_data -->
<g id="edge6" class="edge">
<title>Diploma_Project_data_stage_outputs&#45;&gt;Diploma_Project_data_stage_outputs_stage1_data</title>
<path fill="none" stroke="black" d="M893.42,-149.18C883.54,-146.91 873.55,-144.79 863.97,-143 560.62,-86.36 477.8,-116.42 174.97,-57 169.13,-55.85 163.12,-54.55 157.09,-53.16"/>
<polygon fill="black" stroke="black" points="158.24,-49.84 147.7,-50.91 156.61,-56.64 158.24,-49.84"/>
</g>
<!-- Diploma_Project_data_stage_outputs_stage2_eda -->
<g id="node8" class="node">
<title>Diploma_Project_data_stage_outputs_stage2_eda</title>
<path fill="#64b5cd" stroke="black" d="M332.32,-57C332.32,-57 215.62,-57 215.62,-57 209.62,-57 203.62,-51 203.62,-45 203.62,-45 203.62,-12 203.62,-12 203.62,-6 209.62,0 215.62,0 215.62,0 332.32,0 332.32,0 338.32,0 344.32,-6 344.32,-12 344.32,-12 344.32,-45 344.32,-45 344.32,-51 338.32,-57 332.32,-57"/>
<text xml:space="preserve" text-anchor="middle" x="273.97" y="-21.9" font-family="Arial" font-size="18.00">stage2_eda/</text>
</g>
<!-- Diploma_Project_data_stage_outputs&#45;&gt;Diploma_Project_data_stage_outputs_stage2_eda -->
<g id="edge7" class="edge">
<title>Diploma_Project_data_stage_outputs&#45;&gt;Diploma_Project_data_stage_outputs_stage2_eda</title>
<path fill="none" stroke="black" d="M893.63,-149.71C883.67,-147.34 873.6,-145.05 863.97,-143 647.7,-97.05 589.7,-105.48 373.97,-57 368.05,-55.67 361.94,-54.21 355.81,-52.68"/>
<polygon fill="black" stroke="black" points="356.81,-49.32 346.25,-50.24 355.07,-56.1 356.81,-49.32"/>
</g>
<!-- Diploma_Project_data_stage_outputs_stage3_baseline -->
<g id="node9" class="node">
<title>Diploma_Project_data_stage_outputs_stage3_baseline</title>
<path fill="#64b5cd" stroke="black" d="M567.32,-57C567.32,-57 414.62,-57 414.62,-57 408.62,-57 402.62,-51 402.62,-45 402.62,-45 402.62,-12 402.62,-12 402.62,-6 408.62,0 414.62,0 414.62,0 567.32,0 567.32,0 573.32,0 579.32,-6 579.32,-12 579.32,-12 579.32,-45 579.32,-45 579.32,-51 573.32,-57 567.32,-57"/>
<text xml:space="preserve" text-anchor="middle" x="490.97" y="-21.9" font-family="Arial" font-size="18.00">stage3_baseline/</text>
</g>
<!-- Diploma_Project_data_stage_outputs&#45;&gt;Diploma_Project_data_stage_outputs_stage3_baseline -->
<g id="edge8" class="edge">
<title>Diploma_Project_data_stage_outputs&#45;&gt;Diploma_Project_data_stage_outputs_stage3_baseline</title>
<path fill="none" stroke="black" d="M893.4,-146.98C810.18,-122.68 680.17,-84.73 590.56,-58.57"/>
<polygon fill="black" stroke="black" points="591.59,-55.23 581.01,-55.78 589.63,-61.95 591.59,-55.23"/>
</g>
<!-- Diploma_Project_data_stage_outputs_stage4_bivariate -->
<g id="node10" class="node">
<title>Diploma_Project_data_stage_outputs_stage4_bivariate</title>
<path fill="#64b5cd" stroke="black" d="M803.07,-57C803.07,-57 648.87,-57 648.87,-57 642.87,-57 636.87,-51 636.87,-45 636.87,-45 636.87,-12 636.87,-12 636.87,-6 642.87,0 648.87,0 648.87,0 803.07,0 803.07,0 809.07,0 815.07,-6 815.07,-12 815.07,-12 815.07,-45 815.07,-45 815.07,-51 809.07,-57 803.07,-57"/>
<text xml:space="preserve" text-anchor="middle" x="725.97" y="-21.9" font-family="Arial" font-size="18.00">stage4_bivariate/</text>
</g>
<!-- Diploma_Project_data_stage_outputs&#45;&gt;Diploma_Project_data_stage_outputs_stage4_bivariate -->
<g id="edge9" class="edge">
<title>Diploma_Project_data_stage_outputs&#45;&gt;Diploma_Project_data_stage_outputs_stage4_bivariate</title>
<path fill="none" stroke="black" d="M924.98,-142.64C884.73,-119.76 827.59,-87.27 784.85,-62.98"/>
<polygon fill="black" stroke="black" points="786.61,-59.95 776.19,-58.05 783.15,-66.03 786.61,-59.95"/>
</g>
<!-- Diploma_Project_data_stage_outputs_stage5_multivariate -->
<g id="node11" class="node">
<title>Diploma_Project_data_stage_outputs_stage5_multivariate</title>
<path fill="#64b5cd" stroke="black" d="M1063.07,-57C1063.07,-57 884.87,-57 884.87,-57 878.87,-57 872.87,-51 872.87,-45 872.87,-45 872.87,-12 872.87,-12 872.87,-6 878.87,0 884.87,0 884.87,0 1063.07,0 1063.07,0 1069.07,0 1075.07,-6 1075.07,-12 1075.07,-12 1075.07,-45 1075.07,-45 1075.07,-51 1069.07,-57 1063.07,-57"/>
<text xml:space="preserve" text-anchor="middle" x="973.97" y="-21.9" font-family="Arial" font-size="18.00">stage5_multivariate/</text>
</g>
<!-- Diploma_Project_data_stage_outputs&#45;&gt;Diploma_Project_data_stage_outputs_stage5_multivariate -->
<g id="edge10" class="edge">
<title>Diploma_Project_data_stage_outputs&#45;&gt;Diploma_Project_data_stage_outputs_stage5_multivariate</title>
<path fill="none" stroke="black" d="M973.97,-142.64C973.97,-121.5 973.97,-92.15 973.97,-68.65"/>
<polygon fill="black" stroke="black" points="977.48,-68.81 973.98,-58.81 970.48,-68.81 977.48,-68.81"/>
</g>
<!-- Diploma_Project_data_stage_outputs_stage6_features -->
<g id="node12" class="node">
<title>Diploma_Project_data_stage_outputs_stage6_features</title>
<path fill="#64b5cd" stroke="black" d="M1296.95,-57C1296.95,-57 1145,-57 1145,-57 1139,-57 1133,-51 1133,-45 1133,-45 1133,-12 1133,-12 1133,-6 1139,0 1145,0 1145,0 1296.95,0 1296.95,0 1302.95,0 1308.95,-6 1308.95,-12 1308.95,-12 1308.95,-45 1308.95,-45 1308.95,-51 1302.95,-57 1296.95,-57"/>
<text xml:space="preserve" text-anchor="middle" x="1220.97" y="-21.9" font-family="Arial" font-size="18.00">stage6_features/</text>
</g>
<!-- Diploma_Project_data_stage_outputs&#45;&gt;Diploma_Project_data_stage_outputs_stage6_features -->
<g id="edge11" class="edge">
<title>Diploma_Project_data_stage_outputs&#45;&gt;Diploma_Project_data_stage_outputs_stage6_features</title>
<path fill="none" stroke="black" d="M1022.77,-142.64C1062.86,-119.76 1119.77,-87.27 1162.33,-62.98"/>
<polygon fill="black" stroke="black" points="1164.01,-66.05 1170.96,-58.05 1160.54,-59.97 1164.01,-66.05"/>
</g>
<!-- Diploma_Project_data_stage_outputs_stage7_models -->
<g id="node13" class="node">
<title>Diploma_Project_data_stage_outputs_stage7_models</title>
<path fill="#64b5cd" stroke="black" d="M1523.2,-57C1523.2,-57 1378.75,-57 1378.75,-57 1372.75,-57 1366.75,-51 1366.75,-45 1366.75,-45 1366.75,-12 1366.75,-12 1366.75,-6 1372.75,0 1378.75,0 1378.75,0 1523.2,0 1523.2,0 1529.2,0 1535.2,-6 1535.2,-12 1535.2,-12 1535.2,-45 1535.2,-45 1535.2,-51 1529.2,-57 1523.2,-57"/>
<text xml:space="preserve" text-anchor="middle" x="1450.97" y="-21.9" font-family="Arial" font-size="18.00">stage7_models/</text>
</g>
<!-- Diploma_Project_data_stage_outputs&#45;&gt;Diploma_Project_data_stage_outputs_stage7_models -->
<g id="edge12" class="edge">
<title>Diploma_Project_data_stage_outputs&#45;&gt;Diploma_Project_data_stage_outputs_stage7_models</title>
<path fill="none" stroke="black" d="M1054.35,-146.74C1137.57,-122.14 1267.53,-83.72 1355.83,-57.63"/>
<polygon fill="black" stroke="black" points="1356.6,-61.05 1365.2,-54.86 1354.62,-54.33 1356.6,-61.05"/>
</g>
<!-- Diploma_Project_data_stage_outputs_stage8_interpretation -->
<g id="node14" class="node">
<title>Diploma_Project_data_stage_outputs_stage8_interpretation</title>
<path fill="#64b5cd" stroke="black" d="M1796.45,-57C1796.45,-57 1605.5,-57 1605.5,-57 1599.5,-57 1593.5,-51 1593.5,-45 1593.5,-45 1593.5,-12 1593.5,-12 1593.5,-6 1599.5,0 1605.5,0 1605.5,0 1796.45,0 1796.45,0 1802.45,0 1808.45,-6 1808.45,-12 1808.45,-12 1808.45,-45 1808.45,-45 1808.45,-51 1802.45,-57 1796.45,-57"/>
<text xml:space="preserve" text-anchor="middle" x="1700.97" y="-21.9" font-family="Arial" font-size="18.00">stage8_interpretation/</text>
</g>
<!-- Diploma_Project_data_stage_outputs&#45;&gt;Diploma_Project_data_stage_outputs_stage8_interpretation -->
<g id="edge13" class="edge">
<title>Diploma_Project_data_stage_outputs&#45;&gt;Diploma_Project_data_stage_outputs_stage8_interpretation</title>
<path fill="none" stroke="black" d="M1054.48,-149.51C1064.06,-147.22 1073.72,-144.99 1082.97,-143 1295.28,-97.3 1350.61,-97.48 1563.97,-57 1569.93,-55.87 1576.03,-54.7 1582.19,-53.5"/>
<polygon fill="black" stroke="black" points="1582.69,-56.97 1591.84,-51.62 1581.35,-50.1 1582.69,-56.97"/>
</g>
<!-- Diploma_Project_data_stage_outputs_stage9_submission -->
<g id="node15" class="node">
<title>Diploma_Project_data_stage_outputs_stage9_submission</title>
<path fill="#64b5cd" stroke="black" d="M2053.95,-57C2053.95,-57 1878,-57 1878,-57 1872,-57 1866,-51 1866,-45 1866,-45 1866,-12 1866,-12 1866,-6 1872,0 1878,0 1878,0 2053.95,0 2053.95,0 2059.95,0 2065.95,-6 2065.95,-12 2065.95,-12 2065.95,-45 2065.95,-45 2065.95,-51 2059.95,-57 2053.95,-57"/>
<text xml:space="preserve" text-anchor="middle" x="1965.97" y="-21.9" font-family="Arial" font-size="18.00">stage9_submission/</text>
</g>
<!-- Diploma_Project_data_stage_outputs&#45;&gt;Diploma_Project_data_stage_outputs_stage9_submission -->
<g id="edge14" class="edge">
<title>Diploma_Project_data_stage_outputs&#45;&gt;Diploma_Project_data_stage_outputs_stage9_submission</title>
<path fill="none" stroke="black" d="M1054.37,-148.93C1063.97,-146.74 1073.66,-144.7 1082.97,-143 1414.79,-82.5 1504.1,-111.34 1836.97,-57 1842.84,-56.04 1848.84,-55 1854.88,-53.89"/>
<polygon fill="black" stroke="black" points="1855.13,-57.41 1864.31,-52.12 1853.84,-50.53 1855.13,-57.41"/>
</g>
<!-- Diploma_Project_eda_dicts -->
<g id="node17" class="node">
<title>Diploma_Project_eda_dicts</title>
<path fill="#64b5cd" stroke="black" d="M1185.57,-200C1185.57,-200 1124.38,-200 1124.38,-200 1118.38,-200 1112.38,-194 1112.38,-188 1112.38,-188 1112.38,-155 1112.38,-155 1112.38,-149 1118.38,-143 1124.38,-143 1124.38,-143 1185.57,-143 1185.57,-143 1191.57,-143 1197.57,-149 1197.57,-155 1197.57,-155 1197.57,-188 1197.57,-188 1197.57,-194 1191.57,-200 1185.57,-200"/>
<text xml:space="preserve" text-anchor="middle" x="1154.97" y="-164.9" font-family="Arial" font-size="18.00">dicts/</text>
</g>
<!-- Diploma_Project_eda&#45;&gt;Diploma_Project_eda_dicts -->
<g id="edge16" class="edge">
<title>Diploma_Project_eda&#45;&gt;Diploma_Project_eda_dicts</title>
<path fill="none" stroke="black" d="M1154.97,-285.64C1154.97,-264.5 1154.97,-235.15 1154.97,-211.65"/>
<polygon fill="black" stroke="black" points="1158.48,-211.81 1154.98,-201.81 1151.48,-211.81 1158.48,-211.81"/>
</g>
<!-- Diploma_Project_eda_plots -->
<g id="node18" class="node">
<title>Diploma_Project_eda_plots</title>
<path fill="#64b5cd" stroke="black" d="M1329.95,-200C1329.95,-200 1268,-200 1268,-200 1262,-200 1256,-194 1256,-188 1256,-188 1256,-155 1256,-155 1256,-149 1262,-143 1268,-143 1268,-143 1329.95,-143 1329.95,-143 1335.95,-143 1341.95,-149 1341.95,-155 1341.95,-155 1341.95,-188 1341.95,-188 1341.95,-194 1335.95,-200 1329.95,-200"/>
<text xml:space="preserve" text-anchor="middle" x="1298.97" y="-164.9" font-family="Arial" font-size="18.00">plots/</text>
</g>
<!-- Diploma_Project_eda&#45;&gt;Diploma_Project_eda_plots -->
<g id="edge17" class="edge">
<title>Diploma_Project_eda&#45;&gt;Diploma_Project_eda_plots</title>
<path fill="none" stroke="black" d="M1183.42,-285.64C1206.11,-263.43 1238.02,-232.18 1262.57,-208.15"/>
<polygon fill="black" stroke="black" points="1264.81,-210.86 1269.5,-201.36 1259.91,-205.85 1264.81,-210.86"/>
</g>
<!-- Diploma_Project_reports_figures -->
<g id="node22" class="node">
<title>Diploma_Project_reports_figures</title>
<path fill="#64b5cd" stroke="black" d="M1729.82,-200C1729.82,-200 1652.12,-200 1652.12,-200 1646.12,-200 1640.12,-194 1640.12,-188 1640.12,-188 1640.12,-155 1640.12,-155 1640.12,-149 1646.12,-143 1652.12,-143 1652.12,-143 1729.82,-143 1729.82,-143 1735.82,-143 1741.82,-149 1741.82,-155 1741.82,-155 1741.82,-188 1741.82,-188 1741.82,-194 1735.82,-200 1729.82,-200"/>
<text xml:space="preserve" text-anchor="middle" x="1690.97" y="-164.9" font-family="Arial" font-size="18.00">figures/</text>
</g>
<!-- Diploma_Project_reports&#45;&gt;Diploma_Project_reports_figures -->
<g id="edge21" class="edge">
<title>Diploma_Project_reports&#45;&gt;Diploma_Project_reports_figures</title>
<path fill="none" stroke="black" d="M1694.99,-285.64C1694.24,-264.5 1693.2,-235.15 1692.36,-211.65"/>
<polygon fill="black" stroke="black" points="1695.87,-211.68 1692.01,-201.81 1688.87,-211.93 1695.87,-211.68"/>
</g>
<!-- Diploma_Project_src_pipelines -->
<g id="node24" class="node">
<title>Diploma_Project_src_pipelines</title>
<path fill="#64b5cd" stroke="black" d="M1905.7,-200C1905.7,-200 1812.25,-200 1812.25,-200 1806.25,-200 1800.25,-194 1800.25,-188 1800.25,-188 1800.25,-155 1800.25,-155 1800.25,-149 1806.25,-143 1812.25,-143 1812.25,-143 1905.7,-143 1905.7,-143 1911.7,-143 1917.7,-149 1917.7,-155 1917.7,-155 1917.7,-188 1917.7,-188 1917.7,-194 1911.7,-200 1905.7,-200"/>
<text xml:space="preserve" text-anchor="middle" x="1858.97" y="-164.9" font-family="Arial" font-size="18.00">pipelines/</text>
</g>
<!-- Diploma_Project_src&#45;&gt;Diploma_Project_src_pipelines -->
<g id="edge23" class="edge">
<title>Diploma_Project_src&#45;&gt;Diploma_Project_src_pipelines</title>
<path fill="none" stroke="black" d="M1854.16,-285.64C1855.06,-264.5 1856.31,-235.15 1857.31,-211.65"/>
<polygon fill="black" stroke="black" points="1860.8,-211.95 1857.73,-201.81 1853.81,-211.65 1860.8,-211.95"/>
</g>
</g>
</svg>
