<?xml version="1.0" encoding="UTF-8" standalone="no"?>
<!DOCTYPE svg PUBLIC "-//W3C//DTD SVG 1.1//EN"
 "http://www.w3.org/Graphics/SVG/1.1/DTD/svg11.dtd">
<!-- Generated by graphviz version 15.0.0 (20260523.1842)
 -->
<!-- Title: ProjectStructure Pages: 1 -->
<svg width="3507pt" height="494pt"
 viewBox="0.00 0.00 3507.00 494.00" xmlns="http://www.w3.org/2000/svg" xmlns:xlink="http://www.w3.org/1999/xlink">
<g id="graph0" class="graph" transform="scale(1 1) rotate(0) translate(4 490)">
<title>ProjectStructure</title>
<polygon fill="white" stroke="none" points="-4,4 -4,-490 3502.82,-490 3502.82,4 -4,4"/>
<!-- Diploma_Project -->
<g id="node1" class="node">
<title>Diploma_Project</title>
<path fill="#4c72b0" stroke="black" d="M2761.95,-486C2761.95,-486 2607.75,-486 2607.75,-486 2601.75,-486 2595.75,-480 2595.75,-474 2595.75,-474 2595.75,-441 2595.75,-441 2595.75,-435 2601.75,-429 2607.75,-429 2607.75,-429 2761.95,-429 2761.95,-429 2767.95,-429 2773.95,-435 2773.95,-441 2773.95,-441 2773.95,-474 2773.95,-474 2773.95,-480 2767.95,-486 2761.95,-486"/>
<text xml:space="preserve" text-anchor="middle" x="2684.85" y="-450.9" font-family="Arial" font-size="18.00" fill="white">Diploma_Project/</text>
</g>
<!-- Diploma_Project_configs -->
<g id="node2" class="node">
<title>Diploma_Project_configs</title>
<path fill="#55a868" stroke="black" d="M2307.2,-343C2307.2,-343 2226.5,-343 2226.5,-343 2220.5,-343 2214.5,-337 2214.5,-331 2214.5,-331 2214.5,-298 2214.5,-298 2214.5,-292 2220.5,-286 2226.5,-286 2226.5,-286 2307.2,-286 2307.2,-286 2313.2,-286 2319.2,-292 2319.2,-298 2319.2,-298 2319.2,-331 2319.2,-331 2319.2,-337 2313.2,-343 2307.2,-343"/>
<text xml:space="preserve" text-anchor="middle" x="2266.85" y="-307.9" font-family="Arial" font-size="18.00">configs/</text>
</g>
<!-- Diploma_Project&#45;&gt;Diploma_Project_configs -->
<g id="edge1" class="edge">
<title>Diploma_Project&#45;&gt;Diploma_Project_configs</title>
<path fill="none" stroke="black" d="M2602.02,-428.56C2522.1,-401.6 2402.86,-361.38 2330.24,-336.88"/>
<polygon fill="black" stroke="black" points="2331.46,-333.6 2320.87,-333.72 2329.23,-340.24 2331.46,-333.6"/>
</g>
<!-- Diploma_Project_data -->
<g id="node3" class="node">
<title>Diploma_Project_data</title>
<path fill="#55a868" stroke="black" d="M2448.32,-343C2448.32,-343 2389.38,-343 2389.38,-343 2383.38,-343 2377.38,-337 2377.38,-331 2377.38,-331 2377.38,-298 2377.38,-298 2377.38,-292 2383.38,-286 2389.38,-286 2389.38,-286 2448.32,-286 2448.32,-286 2454.32,-286 2460.32,-292 2460.32,-298 2460.32,-298 2460.32,-331 2460.32,-331 2460.32,-337 2454.32,-343 2448.32,-343"/>
<text xml:space="preserve" text-anchor="middle" x="2418.85" y="-307.9" font-family="Arial" font-size="18.00">data/</text>
</g>
<!-- Diploma_Project&#45;&gt;Diploma_Project_data -->
<g id="edge2" class="edge">
<title>Diploma_Project&#45;&gt;Diploma_Project_data</title>
<path fill="none" stroke="black" d="M2632.3,-428.64C2585.47,-403.82 2517.32,-367.7 2470.7,-342.99"/>
<polygon fill="black" stroke="black" points="2472.62,-340.04 2462.14,-338.45 2469.34,-346.22 2472.62,-340.04"/>
</g>
<!-- Diploma_Project_maintenance -->
<g id="node15" class="node">
<title>Diploma_Project_maintenance</title>
<path fill="#55a868" stroke="black" d="M2655.7,-343C2655.7,-343 2530,-343 2530,-343 2524,-343 2518,-337 2518,-331 2518,-331 2518,-298 2518,-298 2518,-292 2524,-286 2530,-286 2530,-286 2655.7,-286 2655.7,-286 2661.7,-286 2667.7,-292 2667.7,-298 2667.7,-298 2667.7,-331 2667.7,-331 2667.7,-337 2661.7,-343 2655.7,-343"/>
<text xml:space="preserve" text-anchor="middle" x="2592.85" y="-307.9" font-family="Arial" font-size="18.00">maintenance/</text>
</g>
<!-- Diploma_Project&#45;&gt;Diploma_Project_maintenance -->
<g id="edge14" class="edge">
<title>Diploma_Project&#45;&gt;Diploma_Project_maintenance</title>
<path fill="none" stroke="black" d="M2666.67,-428.64C2652.5,-406.92 2632.68,-376.54 2617.14,-352.73"/>
<polygon fill="black" stroke="black" points="2620.21,-351.03 2611.82,-344.57 2614.35,-354.85 2620.21,-351.03"/>
</g>
<!-- Diploma_Project_reports -->
<g id="node16" class="node">
<title>Diploma_Project_reports</title>
<path fill="#55a868" stroke="black" d="M2817.82,-343C2817.82,-343 2737.88,-343 2737.88,-343 2731.88,-343 2725.88,-337 2725.88,-331 2725.88,-331 2725.88,-298 2725.88,-298 2725.88,-292 2731.88,-286 2737.88,-286 2737.88,-286 2817.82,-286 2817.82,-286 2823.82,-286 2829.82,-292 2829.82,-298 2829.82,-298 2829.82,-331 2829.82,-331 2829.82,-337 2823.82,-343 2817.82,-343"/>
<text xml:space="preserve" text-anchor="middle" x="2777.85" y="-307.9" font-family="Arial" font-size="18.00">reports/</text>
</g>
<!-- Diploma_Project&#45;&gt;Diploma_Project_reports -->
<g id="edge15" class="edge">
<title>Diploma_Project&#45;&gt;Diploma_Project_reports</title>
<path fill="none" stroke="black" d="M2703.22,-428.64C2717.55,-406.92 2737.59,-376.54 2753.3,-352.73"/>
<polygon fill="black" stroke="black" points="2756.1,-354.84 2758.68,-344.56 2750.25,-350.98 2756.1,-354.84"/>
</g>
<!-- Diploma_Project_scripts -->
<g id="node24" class="node">
<title>Diploma_Project_scripts</title>
<path fill="#55a868" stroke="black" d="M2975.95,-343C2975.95,-343 2899.75,-343 2899.75,-343 2893.75,-343 2887.75,-337 2887.75,-331 2887.75,-331 2887.75,-298 2887.75,-298 2887.75,-292 2893.75,-286 2899.75,-286 2899.75,-286 2975.95,-286 2975.95,-286 2981.95,-286 2987.95,-292 2987.95,-298 2987.95,-298 2987.95,-331 2987.95,-331 2987.95,-337 2981.95,-343 2975.95,-343"/>
<text xml:space="preserve" text-anchor="middle" x="2937.85" y="-307.9" font-family="Arial" font-size="18.00">scripts/</text>
</g>
<!-- Diploma_Project&#45;&gt;Diploma_Project_scripts -->
<g id="edge23" class="edge">
<title>Diploma_Project&#45;&gt;Diploma_Project_scripts</title>
<path fill="none" stroke="black" d="M2734.83,-428.64C2775.98,-405.71 2834.44,-373.13 2878.06,-348.82"/>
<polygon fill="black" stroke="black" points="2879.62,-351.96 2886.65,-344.04 2876.21,-345.85 2879.62,-351.96"/>
</g>
<!-- Diploma_Project_src -->
<g id="node25" class="node">
<title>Diploma_Project_src</title>
<path fill="#55a868" stroke="black" d="M3165.07,-343C3165.07,-343 3116.62,-343 3116.62,-343 3110.62,-343 3104.62,-337 3104.62,-331 3104.62,-331 3104.62,-298 3104.62,-298 3104.62,-292 3110.62,-286 3116.62,-286 3116.62,-286 3165.07,-286 3165.07,-286 3171.07,-286 3177.07,-292 3177.07,-298 3177.07,-298 3177.07,-331 3177.07,-331 3177.07,-337 3171.07,-343 3165.07,-343"/>
<text xml:space="preserve" text-anchor="middle" x="3140.85" y="-307.9" font-family="Arial" font-size="18.00">src/</text>
</g>
<!-- Diploma_Project&#45;&gt;Diploma_Project_src -->
<g id="edge24" class="edge">
<title>Diploma_Project&#45;&gt;Diploma_Project_src</title>
<path fill="none" stroke="black" d="M2774.4,-428.81C2870.19,-399.19 3018.47,-353.34 3093.66,-330.09"/>
<polygon fill="black" stroke="black" points="3094.25,-333.57 3102.77,-327.28 3092.18,-326.89 3094.25,-333.57"/>
</g>
<!-- Diploma_Project_data_stage_outputs -->
<g id="node4" class="node">
<title>Diploma_Project_data_stage_outputs</title>
<path fill="#64b5cd" stroke="black" d="M1309.95,-200C1309.95,-200 1173.75,-200 1173.75,-200 1167.75,-200 1161.75,-194 1161.75,-188 1161.75,-188 1161.75,-155 1161.75,-155 1161.75,-149 1167.75,-143 1173.75,-143 1173.75,-143 1309.95,-143 1309.95,-143 1315.95,-143 1321.95,-149 1321.95,-155 1321.95,-155 1321.95,-188 1321.95,-188 1321.95,-194 1315.95,-200 1309.95,-200"/>
<text xml:space="preserve" text-anchor="middle" x="1241.85" y="-164.9" font-family="Arial" font-size="18.00">stage_outputs/</text>
</g>
<!-- Diploma_Project_data&#45;&gt;Diploma_Project_data_stage_outputs -->
<g id="edge3" class="edge">
<title>Diploma_Project_data&#45;&gt;Diploma_Project_data_stage_outputs</title>
<path fill="none" stroke="black" d="M2377.02,-295.17C2367.57,-291.64 2357.49,-288.32 2347.85,-286 1979.09,-197.36 1524.86,-177.92 1333.59,-173.68"/>
<polygon fill="black" stroke="black" points="1333.79,-170.18 1323.71,-173.47 1333.64,-177.18 1333.79,-170.18"/>
</g>
<!-- Diploma_Project_data_stage_outputs_stage10_submission -->
<g id="node5" class="node">
<title>Diploma_Project_data_stage_outputs_stage10_submission</title>
<path fill="#64b5cd" stroke="black" d="M197.7,-57C197.7,-57 12,-57 12,-57 6,-57 0,-51 0,-45 0,-45 0,-12 0,-12 0,-6 6,0 12,0 12,0 197.7,0 197.7,0 203.7,0 209.7,-6 209.7,-12 209.7,-12 209.7,-45 209.7,-45 209.7,-51 203.7,-57 197.7,-57"/>
<text xml:space="preserve" text-anchor="middle" x="104.85" y="-21.9" font-family="Arial" font-size="18.00">stage10_submission/</text>
</g>
<!-- Diploma_Project_data_stage_outputs&#45;&gt;Diploma_Project_data_stage_outputs_stage10_submission -->
<g id="edge4" class="edge">
<title>Diploma_Project_data_stage_outputs&#45;&gt;Diploma_Project_data_stage_outputs_stage10_submission</title>
<path fill="none" stroke="black" d="M1161.56,-163.88C991,-149.28 580.24,-111.23 238.85,-57 232.99,-56.07 226.99,-55.06 220.94,-53.99"/>
<polygon fill="black" stroke="black" points="221.97,-50.62 211.51,-52.28 220.73,-57.51 221.97,-50.62"/>
</g>
<!-- Diploma_Project_data_stage_outputs_stage1_data -->
<g id="node6" class="node">
<title>Diploma_Project_data_stage_outputs_stage1_data</title>
<path fill="#64b5cd" stroke="black" d="M401.82,-57C401.82,-57 279.87,-57 279.87,-57 273.87,-57 267.87,-51 267.87,-45 267.87,-45 267.87,-12 267.87,-12 267.87,-6 273.87,0 279.87,0 279.87,0 401.82,0 401.82,0 407.82,0 413.82,-6 413.82,-12 413.82,-12 413.82,-45 413.82,-45 413.82,-51 407.82,-57 401.82,-57"/>
<text xml:space="preserve" text-anchor="middle" x="340.85" y="-21.9" font-family="Arial" font-size="18.00">stage1_data/</text>
</g>
<!-- Diploma_Project_data_stage_outputs&#45;&gt;Diploma_Project_data_stage_outputs_stage1_data -->
<g id="edge5" class="edge">
<title>Diploma_Project_data_stage_outputs&#45;&gt;Diploma_Project_data_stage_outputs_stage1_data</title>
<path fill="none" stroke="black" d="M1161.34,-162.36C1016.61,-146.99 703.29,-110.4 442.85,-57 437.01,-55.8 431.01,-54.47 424.98,-53.05"/>
<polygon fill="black" stroke="black" points="426.15,-49.73 415.61,-50.77 424.5,-56.53 426.15,-49.73"/>
</g>
<!-- Diploma_Project_data_stage_outputs_stage2_eda -->
<g id="node7" class="node">
<title>Diploma_Project_data_stage_outputs_stage2_eda</title>
<path fill="#64b5cd" stroke="black" d="M600.2,-57C600.2,-57 483.5,-57 483.5,-57 477.5,-57 471.5,-51 471.5,-45 471.5,-45 471.5,-12 471.5,-12 471.5,-6 477.5,0 483.5,0 483.5,0 600.2,0 600.2,0 606.2,0 612.2,-6 612.2,-12 612.2,-12 612.2,-45 612.2,-45 612.2,-51 606.2,-57 600.2,-57"/>
<text xml:space="preserve" text-anchor="middle" x="541.85" y="-21.9" font-family="Arial" font-size="18.00">stage2_eda/</text>
</g>
<!-- Diploma_Project_data_stage_outputs&#45;&gt;Diploma_Project_data_stage_outputs_stage2_eda -->
<g id="edge6" class="edge">
<title>Diploma_Project_data_stage_outputs&#45;&gt;Diploma_Project_data_stage_outputs_stage2_eda</title>
<path fill="none" stroke="black" d="M1161.35,-157.42C1045.79,-138.15 826.46,-99.77 641.85,-57 635.93,-55.63 629.83,-54.14 623.71,-52.59"/>
<polygon fill="black" stroke="black" points="624.71,-49.23 614.15,-50.12 622.96,-56.01 624.71,-49.23"/>
</g>
<!-- Diploma_Project_data_stage_outputs_stage3_baseline -->
<g id="node8" class="node">
<title>Diploma_Project_data_stage_outputs_stage3_baseline</title>
<path fill="#64b5cd" stroke="black" d="M835.2,-57C835.2,-57 682.5,-57 682.5,-57 676.5,-57 670.5,-51 670.5,-45 670.5,-45 670.5,-12 670.5,-12 670.5,-6 676.5,0 682.5,0 682.5,0 835.2,0 835.2,0 841.2,0 847.2,-6 847.2,-12 847.2,-12 847.2,-45 847.2,-45 847.2,-51 841.2,-57 835.2,-57"/>
<text xml:space="preserve" text-anchor="middle" x="758.85" y="-21.9" font-family="Arial" font-size="18.00">stage3_baseline/</text>
</g>
<!-- Diploma_Project_data_stage_outputs&#45;&gt;Diploma_Project_data_stage_outputs_stage3_baseline -->
<g id="edge7" class="edge">
<title>Diploma_Project_data_stage_outputs&#45;&gt;Diploma_Project_data_stage_outputs_stage3_baseline</title>
<path fill="none" stroke="black" d="M1161.28,-146.98C1078.06,-122.68 948.04,-84.73 858.43,-58.57"/>
<polygon fill="black" stroke="black" points="859.47,-55.23 848.89,-55.78 857.51,-61.95 859.47,-55.23"/>
</g>
<!-- Diploma_Project_data_stage_outputs_stage4_bivariate -->
<g id="node9" class="node">
<title>Diploma_Project_data_stage_outputs_stage4_bivariate</title>
<path fill="#64b5cd" stroke="black" d="M1070.95,-57C1070.95,-57 916.75,-57 916.75,-57 910.75,-57 904.75,-51 904.75,-45 904.75,-45 904.75,-12 904.75,-12 904.75,-6 910.75,0 916.75,0 916.75,0 1070.95,0 1070.95,0 1076.95,0 1082.95,-6 1082.95,-12 1082.95,-12 1082.95,-45 1082.95,-45 1082.95,-51 1076.95,-57 1070.95,-57"/>
<text xml:space="preserve" text-anchor="middle" x="993.85" y="-21.9" font-family="Arial" font-size="18.00">stage4_bivariate/</text>
</g>
<!-- Diploma_Project_data_stage_outputs&#45;&gt;Diploma_Project_data_stage_outputs_stage4_bivariate -->
<g id="edge8" class="edge">
<title>Diploma_Project_data_stage_outputs&#45;&gt;Diploma_Project_data_stage_outputs_stage4_bivariate</title>
<path fill="none" stroke="black" d="M1192.85,-142.64C1152.6,-119.76 1095.46,-87.27 1052.73,-62.98"/>
<polygon fill="black" stroke="black" points="1054.48,-59.95 1044.06,-58.05 1051.02,-66.03 1054.48,-59.95"/>
</g>
<!-- Diploma_Project_data_stage_outputs_stage5_multivariate -->
<g id="node10" class="node">
<title>Diploma_Project_data_stage_outputs_stage5_multivariate</title>
<path fill="#64b5cd" stroke="black" d="M1330.95,-57C1330.95,-57 1152.75,-57 1152.75,-57 1146.75,-57 1140.75,-51 1140.75,-45 1140.75,-45 1140.75,-12 1140.75,-12 1140.75,-6 1146.75,0 1152.75,0 1152.75,0 1330.95,0 1330.95,0 1336.95,0 1342.95,-6 1342.95,-12 1342.95,-12 1342.95,-45 1342.95,-45 1342.95,-51 1336.95,-57 1330.95,-57"/>
<text xml:space="preserve" text-anchor="middle" x="1241.85" y="-21.9" font-family="Arial" font-size="18.00">stage5_multivariate/</text>
</g>
<!-- Diploma_Project_data_stage_outputs&#45;&gt;Diploma_Project_data_stage_outputs_stage5_multivariate -->
<g id="edge9" class="edge">
<title>Diploma_Project_data_stage_outputs&#45;&gt;Diploma_Project_data_stage_outputs_stage5_multivariate</title>
<path fill="none" stroke="black" d="M1241.85,-142.64C1241.85,-121.5 1241.85,-92.15 1241.85,-68.65"/>
<polygon fill="black" stroke="black" points="1245.35,-68.81 1241.85,-58.81 1238.35,-68.81 1245.35,-68.81"/>
</g>
<!-- Diploma_Project_data_stage_outputs_stage6_features -->
<g id="node11" class="node">
<title>Diploma_Project_data_stage_outputs_stage6_features</title>
<path fill="#64b5cd" stroke="black" d="M1564.82,-57C1564.82,-57 1412.88,-57 1412.88,-57 1406.88,-57 1400.88,-51 1400.88,-45 1400.88,-45 1400.88,-12 1400.88,-12 1400.88,-6 1406.88,0 1412.88,0 1412.88,0 1564.82,0 1564.82,0 1570.82,0 1576.82,-6 1576.82,-12 1576.82,-12 1576.82,-45 1576.82,-45 1576.82,-51 1570.82,-57 1564.82,-57"/>
<text xml:space="preserve" text-anchor="middle" x="1488.85" y="-21.9" font-family="Arial" font-size="18.00">stage6_features/</text>
</g>
<!-- Diploma_Project_data_stage_outputs&#45;&gt;Diploma_Project_data_stage_outputs_stage6_features -->
<g id="edge10" class="edge">
<title>Diploma_Project_data_stage_outputs&#45;&gt;Diploma_Project_data_stage_outputs_stage6_features</title>
<path fill="none" stroke="black" d="M1290.65,-142.64C1330.74,-119.76 1387.65,-87.27 1430.21,-62.98"/>
<polygon fill="black" stroke="black" points="1431.89,-66.05 1438.84,-58.05 1428.42,-59.97 1431.89,-66.05"/>
</g>
<!-- Diploma_Project_data_stage_outputs_stage7_models -->
<g id="node12" class="node">
<title>Diploma_Project_data_stage_outputs_stage7_models</title>
<path fill="#64b5cd" stroke="black" d="M1791.07,-57C1791.07,-57 1646.62,-57 1646.62,-57 1640.62,-57 1634.62,-51 1634.62,-45 1634.62,-45 1634.62,-12 1634.62,-12 1634.62,-6 1640.62,0 1646.62,0 1646.62,0 1791.07,0 1791.07,0 1797.07,0 1803.07,-6 1803.07,-12 1803.07,-12 1803.07,-45 1803.07,-45 1803.07,-51 1797.07,-57 1791.07,-57"/>
<text xml:space="preserve" text-anchor="middle" x="1718.85" y="-21.9" font-family="Arial" font-size="18.00">stage7_models/</text>
</g>
<!-- Diploma_Project_data_stage_outputs&#45;&gt;Diploma_Project_data_stage_outputs_stage7_models -->
<g id="edge11" class="edge">
<title>Diploma_Project_data_stage_outputs&#45;&gt;Diploma_Project_data_stage_outputs_stage7_models</title>
<path fill="none" stroke="black" d="M1322.23,-146.74C1405.45,-122.14 1535.41,-83.72 1623.7,-57.63"/>
<polygon fill="black" stroke="black" points="1624.48,-61.05 1633.07,-54.86 1622.49,-54.33 1624.48,-61.05"/>
</g>
<!-- Diploma_Project_data_stage_outputs_stage8_optimization -->
<g id="node13" class="node">
<title>Diploma_Project_data_stage_outputs_stage8_optimization</title>
<path fill="#64b5cd" stroke="black" d="M2054.82,-57C2054.82,-57 1872.88,-57 1872.88,-57 1866.88,-57 1860.88,-51 1860.88,-45 1860.88,-45 1860.88,-12 1860.88,-12 1860.88,-6 1866.88,0 1872.88,0 1872.88,0 2054.82,0 2054.82,0 2060.82,0 2066.82,-6 2066.82,-12 2066.82,-12 2066.82,-45 2066.82,-45 2066.82,-51 2060.82,-57 2054.82,-57"/>
<text xml:space="preserve" text-anchor="middle" x="1963.85" y="-21.9" font-family="Arial" font-size="18.00">stage8_optimization/</text>
</g>
<!-- Diploma_Project_data_stage_outputs&#45;&gt;Diploma_Project_data_stage_outputs_stage8_optimization -->
<g id="edge12" class="edge">
<title>Diploma_Project_data_stage_outputs&#45;&gt;Diploma_Project_data_stage_outputs_stage8_optimization</title>
<path fill="none" stroke="black" d="M1322.09,-155.47C1435.67,-134.1 1649.8,-93.47 1831.85,-57 1837.66,-55.84 1843.61,-54.63 1849.62,-53.41"/>
<polygon fill="black" stroke="black" points="1849.9,-56.93 1858.99,-51.5 1848.5,-50.07 1849.9,-56.93"/>
</g>
<!-- Diploma_Project_data_stage_outputs_stage9_interpretation -->
<g id="node14" class="node">
<title>Diploma_Project_data_stage_outputs_stage9_interpretation</title>
<path fill="#64b5cd" stroke="black" d="M2327.32,-57C2327.32,-57 2136.38,-57 2136.38,-57 2130.38,-57 2124.38,-51 2124.38,-45 2124.38,-45 2124.38,-12 2124.38,-12 2124.38,-6 2130.38,0 2136.38,0 2136.38,0 2327.32,0 2327.32,0 2333.32,0 2339.32,-6 2339.32,-12 2339.32,-12 2339.32,-45 2339.32,-45 2339.32,-51 2333.32,-57 2327.32,-57"/>
<text xml:space="preserve" text-anchor="middle" x="2231.85" y="-21.9" font-family="Arial" font-size="18.00">stage9_interpretation/</text>
</g>
<!-- Diploma_Project_data_stage_outputs&#45;&gt;Diploma_Project_data_stage_outputs_stage9_interpretation -->
<g id="edge13" class="edge">
<title>Diploma_Project_data_stage_outputs&#45;&gt;Diploma_Project_data_stage_outputs_stage9_interpretation</title>
<path fill="none" stroke="black" d="M1322.18,-161.65C1473.86,-144.54 1812.62,-104.4 2095.85,-57 2101.42,-56.07 2107.12,-55.07 2112.86,-54.04"/>
<polygon fill="black" stroke="black" points="2113.27,-57.52 2122.47,-52.28 2112,-50.64 2113.27,-57.52"/>
</g>
<!-- Diploma_Project_reports_figures -->
<g id="node17" class="node">
<title>Diploma_Project_reports_figures</title>
<path fill="#64b5cd" stroke="black" d="M2816.7,-200C2816.7,-200 2739,-200 2739,-200 2733,-200 2727,-194 2727,-188 2727,-188 2727,-155 2727,-155 2727,-149 2733,-143 2739,-143 2739,-143 2816.7,-143 2816.7,-143 2822.7,-143 2828.7,-149 2828.7,-155 2828.7,-155 2828.7,-188 2828.7,-188 2828.7,-194 2822.7,-200 2816.7,-200"/>
<text xml:space="preserve" text-anchor="middle" x="2777.85" y="-164.9" font-family="Arial" font-size="18.00">figures/</text>
</g>
<!-- Diploma_Project_reports&#45;&gt;Diploma_Project_reports_figures -->
<g id="edge16" class="edge">
<title>Diploma_Project_reports&#45;&gt;Diploma_Project_reports_figures</title>
<path fill="none" stroke="black" d="M2777.85,-285.64C2777.85,-264.5 2777.85,-235.15 2777.85,-211.65"/>
<polygon fill="black" stroke="black" points="2781.35,-211.81 2777.85,-201.81 2774.35,-211.81 2781.35,-211.81"/>
</g>
<!-- Diploma_Project_reports_figures_stage10 -->
<g id="node18" class="node">
<title>Diploma_Project_reports_figures_stage10</title>
<path fill="#64b5cd" stroke="black" d="M2496.57,-57C2496.57,-57 2409.12,-57 2409.12,-57 2403.12,-57 2397.12,-51 2397.12,-45 2397.12,-45 2397.12,-12 2397.12,-12 2397.12,-6 2403.12,0 2409.12,0 2409.12,0 2496.57,0 2496.57,0 2502.57,0 2508.57,-6 2508.57,-12 2508.57,-12 2508.57,-45 2508.57,-45 2508.57,-51 2502.57,-57 2496.57,-57"/>
<text xml:space="preserve" text-anchor="middle" x="2452.85" y="-21.9" font-family="Arial" font-size="18.00">stage10/</text>
</g>
<!-- Diploma_Project_reports_figures&#45;&gt;Diploma_Project_reports_figures_stage10 -->
<g id="edge17" class="edge">
<title>Diploma_Project_reports_figures&#45;&gt;Diploma_Project_reports_figures_stage10</title>
<path fill="none" stroke="black" d="M2726.71,-148.31C2670.69,-124.01 2580.66,-84.95 2519.23,-58.3"/>
<polygon fill="black" stroke="black" points="2520.82,-55.17 2510.26,-54.4 2518.04,-61.6 2520.82,-55.17"/>
</g>
<!-- Diploma_Project_reports_figures_stage2 -->
<g id="node19" class="node">
<title>Diploma_Project_reports_figures_stage2</title>
<path fill="#64b5cd" stroke="black" d="M2656.7,-57C2656.7,-57 2579,-57 2579,-57 2573,-57 2567,-51 2567,-45 2567,-45 2567,-12 2567,-12 2567,-6 2573,0 2579,0 2579,0 2656.7,0 2656.7,0 2662.7,0 2668.7,-6 2668.7,-12 2668.7,-12 2668.7,-45 2668.7,-45 2668.7,-51 2662.7,-57 2656.7,-57"/>
<text xml:space="preserve" text-anchor="middle" x="2617.85" y="-21.9" font-family="Arial" font-size="18.00">stage2/</text>
</g>
<!-- Diploma_Project_reports_figures&#45;&gt;Diploma_Project_reports_figures_stage2 -->
<g id="edge18" class="edge">
<title>Diploma_Project_reports_figures&#45;&gt;Diploma_Project_reports_figures_stage2</title>
<path fill="none" stroke="black" d="M2746.24,-142.64C2720.93,-120.34 2685.27,-88.91 2657.95,-64.84"/>
<polygon fill="black" stroke="black" points="2660.35,-62.29 2650.53,-58.3 2655.72,-67.54 2660.35,-62.29"/>
</g>
<!-- Diploma_Project_reports_figures_stage3 -->
<g id="node20" class="node">
<title>Diploma_Project_reports_figures_stage3</title>
<path fill="#64b5cd" stroke="black" d="M2816.7,-57C2816.7,-57 2739,-57 2739,-57 2733,-57 2727,-51 2727,-45 2727,-45 2727,-12 2727,-12 2727,-6 2733,0 2739,0 2739,0 2816.7,0 2816.7,0 2822.7,0 2828.7,-6 2828.7,-12 2828.7,-12 2828.7,-45 2828.7,-45 2828.7,-51 2822.7,-57 2816.7,-57"/>
<text xml:space="preserve" text-anchor="middle" x="2777.85" y="-21.9" font-family="Arial" font-size="18.00">stage3/</text>
</g>
<!-- Diploma_Project_reports_figures&#45;&gt;Diploma_Project_reports_figures_stage3 -->
<g id="edge19" class="edge">
<title>Diploma_Project_reports_figures&#45;&gt;Diploma_Project_reports_figures_stage3</title>
<path fill="none" stroke="black" d="M2777.85,-142.64C2777.85,-121.5 2777.85,-92.15 2777.85,-68.65"/>
<polygon fill="black" stroke="black" points="2781.35,-68.81 2777.85,-58.81 2774.35,-68.81 2781.35,-68.81"/>
</g>
<!-- Diploma_Project_reports_figures_stage4 -->
<g id="node21" class="node">
<title>Diploma_Project_reports_figures_stage4</title>
<path fill="#64b5cd" stroke="black" d="M2976.7,-57C2976.7,-57 2899,-57 2899,-57 2893,-57 2887,-51 2887,-45 2887,-45 2887,-12 2887,-12 2887,-6 2893,0 2899,0 2899,0 2976.7,0 2976.7,0 2982.7,0 2988.7,-6 2988.7,-12 2988.7,-12 2988.7,-45 2988.7,-45 2988.7,-51 2982.7,-57 2976.7,-57"/>
<text xml:space="preserve" text-anchor="middle" x="2937.85" y="-21.9" font-family="Arial" font-size="18.00">stage4/</text>
</g>
<!-- Diploma_Project_reports_figures&#45;&gt;Diploma_Project_reports_figures_stage4 -->
<g id="edge20" class="edge">
<title>Diploma_Project_reports_figures&#45;&gt;Diploma_Project_reports_figures_stage4</title>
<path fill="none" stroke="black" d="M2809.46,-142.64C2834.77,-120.34 2870.43,-88.91 2897.75,-64.84"/>
<polygon fill="black" stroke="black" points="2899.98,-67.54 2905.17,-58.3 2895.35,-62.29 2899.98,-67.54"/>
</g>
<!-- Diploma_Project_reports_figures_stage5 -->
<g id="node22" class="node">
<title>Diploma_Project_reports_figures_stage5</title>
<path fill="#64b5cd" stroke="black" d="M3136.7,-57C3136.7,-57 3059,-57 3059,-57 3053,-57 3047,-51 3047,-45 3047,-45 3047,-12 3047,-12 3047,-6 3053,0 3059,0 3059,0 3136.7,0 3136.7,0 3142.7,0 3148.7,-6 3148.7,-12 3148.7,-12 3148.7,-45 3148.7,-45 3148.7,-51 3142.7,-57 3136.7,-57"/>
<text xml:space="preserve" text-anchor="middle" x="3097.85" y="-21.9" font-family="Arial" font-size="18.00">stage5/</text>
</g>
<!-- Diploma_Project_reports_figures&#45;&gt;Diploma_Project_reports_figures_stage5 -->
<g id="edge21" class="edge">
<title>Diploma_Project_reports_figures&#45;&gt;Diploma_Project_reports_figures_stage5</title>
<path fill="none" stroke="black" d="M2828.91,-148C2885.26,-123.17 2975.93,-83.22 3036.2,-56.67"/>
<polygon fill="black" stroke="black" points="3037.58,-59.88 3045.32,-52.64 3034.76,-53.47 3037.58,-59.88"/>
</g>
<!-- Diploma_Project_reports_figures_stage8 -->
<g id="node23" class="node">
<title>Diploma_Project_reports_figures_stage8</title>
<path fill="#64b5cd" stroke="black" d="M3296.7,-57C3296.7,-57 3219,-57 3219,-57 3213,-57 3207,-51 3207,-45 3207,-45 3207,-12 3207,-12 3207,-6 3213,0 3219,0 3219,0 3296.7,0 3296.7,0 3302.7,0 3308.7,-6 3308.7,-12 3308.7,-12 3308.7,-45 3308.7,-45 3308.7,-51 3302.7,-57 3296.7,-57"/>
<text xml:space="preserve" text-anchor="middle" x="3257.85" y="-21.9" font-family="Arial" font-size="18.00">stage8/</text>
</g>
<!-- Diploma_Project_reports_figures&#45;&gt;Diploma_Project_reports_figures_stage8 -->
<g id="edge22" class="edge">
<title>Diploma_Project_reports_figures&#45;&gt;Diploma_Project_reports_figures_stage8</title>
<path fill="none" stroke="black" d="M2828.89,-152.37C2838.48,-149.13 2848.44,-145.88 2857.85,-143 2998.68,-99.93 3037.02,-100.07 3177.85,-57 3183.73,-55.2 3189.83,-53.26 3195.91,-51.26"/>
<polygon fill="black" stroke="black" points="3196.99,-54.59 3205.37,-48.11 3194.78,-47.95 3196.99,-54.59"/>
</g>
<!-- Diploma_Project_src_deployment -->
<g id="node26" class="node">
<title>Diploma_Project_src_deployment</title>
<path fill="#64b5cd" stroke="black" d="M3014.82,-200C3014.82,-200 2898.88,-200 2898.88,-200 2892.88,-200 2886.88,-194 2886.88,-188 2886.88,-188 2886.88,-155 2886.88,-155 2886.88,-149 2892.88,-143 2898.88,-143 2898.88,-143 3014.82,-143 3014.82,-143 3020.82,-143 3026.82,-149 3026.82,-155 3026.82,-155 3026.82,-188 3026.82,-188 3026.82,-194 3020.82,-200 3014.82,-200"/>
<text xml:space="preserve" text-anchor="middle" x="2956.85" y="-164.9" font-family="Arial" font-size="18.00">deployment/</text>
</g>
<!-- Diploma_Project_src&#45;&gt;Diploma_Project_src_deployment -->
<g id="edge25" class="edge">
<title>Diploma_Project_src&#45;&gt;Diploma_Project_src_deployment</title>
<path fill="none" stroke="black" d="M3104.5,-285.64C3075.14,-263.14 3033.67,-231.37 3002.15,-207.21"/>
<polygon fill="black" stroke="black" points="3004.39,-204.52 2994.33,-201.22 3000.14,-210.08 3004.39,-204.52"/>
</g>
<!-- Diploma_Project_src_features -->
<g id="node27" class="node">
<title>Diploma_Project_src_features</title>
<path fill="#64b5cd" stroke="black" d="M3185.32,-200C3185.32,-200 3096.38,-200 3096.38,-200 3090.38,-200 3084.38,-194 3084.38,-188 3084.38,-188 3084.38,-155 3084.38,-155 3084.38,-149 3090.38,-143 3096.38,-143 3096.38,-143 3185.32,-143 3185.32,-143 3191.32,-143 3197.32,-149 3197.32,-155 3197.32,-155 3197.32,-188 3197.32,-188 3197.32,-194 3191.32,-200 3185.32,-200"/>
<text xml:space="preserve" text-anchor="middle" x="3140.85" y="-164.9" font-family="Arial" font-size="18.00">features/</text>
</g>
<!-- Diploma_Project_src&#45;&gt;Diploma_Project_src_features -->
<g id="edge26" class="edge">
<title>Diploma_Project_src&#45;&gt;Diploma_Project_src_features</title>
<path fill="none" stroke="black" d="M3140.85,-285.64C3140.85,-264.5 3140.85,-235.15 3140.85,-211.65"/>
<polygon fill="black" stroke="black" points="3144.35,-211.81 3140.85,-201.81 3137.35,-211.81 3144.35,-211.81"/>
</g>
<!-- Diploma_Project_src_models -->
<g id="node28" class="node">
<title>Diploma_Project_src_models</title>
<path fill="#64b5cd" stroke="black" d="M3348.57,-200C3348.57,-200 3267.12,-200 3267.12,-200 3261.12,-200 3255.12,-194 3255.12,-188 3255.12,-188 3255.12,-155 3255.12,-155 3255.12,-149 3261.12,-143 3267.12,-143 3267.12,-143 3348.57,-143 3348.57,-143 3354.57,-143 3360.57,-149 3360.57,-155 3360.57,-155 3360.57,-188 3360.57,-188 3360.57,-194 3354.57,-200 3348.57,-200"/>
<text xml:space="preserve" text-anchor="middle" x="3307.85" y="-164.9" font-family="Arial" font-size="18.00">models/</text>
</g>
<!-- Diploma_Project_src&#45;&gt;Diploma_Project_src_models -->
<g id="edge27" class="edge">
<title>Diploma_Project_src&#45;&gt;Diploma_Project_src_models</title>
<path fill="none" stroke="black" d="M3173.84,-285.64C3200.38,-263.24 3237.81,-231.64 3266.37,-207.52"/>
<polygon fill="black" stroke="black" points="3268.39,-210.4 3273.77,-201.28 3263.87,-205.05 3268.39,-210.4"/>
</g>
<!-- Diploma_Project_src_utils -->
<g id="node29" class="node">
<title>Diploma_Project_src_utils</title>
<path fill="#64b5cd" stroke="black" d="M3486.82,-200C3486.82,-200 3430.88,-200 3430.88,-200 3424.88,-200 3418.88,-194 3418.88,-188 3418.88,-188 3418.88,-155 3418.88,-155 3418.88,-149 3424.88,-143 3430.88,-143 3430.88,-143 3486.82,-143 3486.82,-143 3492.82,-143 3498.82,-149 3498.82,-155 3498.82,-155 3498.82,-188 3498.82,-188 3498.82,-194 3492.82,-200 3486.82,-200"/>
<text xml:space="preserve" text-anchor="middle" x="3458.85" y="-164.9" font-family="Arial" font-size="18.00">utils/</text>
</g>
<!-- Diploma_Project_src&#45;&gt;Diploma_Project_src_utils -->
<g id="edge28" class="edge">
<title>Diploma_Project_src&#45;&gt;Diploma_Project_src_utils</title>
<path fill="none" stroke="black" d="M3177.33,-297.33C3234.12,-272.14 3343.83,-223.5 3408.24,-194.94"/>
<polygon fill="black" stroke="black" points="3409.46,-198.23 3417.18,-190.98 3406.62,-191.83 3409.46,-198.23"/>
</g>
</g>
</svg>
