<?xml version="1.0" encoding="UTF-8" standalone="no"?>
<!DOCTYPE svg PUBLIC "-//W3C//DTD SVG 1.1//EN"
 "http://www.w3.org/Graphics/SVG/1.1/DTD/svg11.dtd">
<!-- Generated by graphviz version 15.0.0 (20260523.1842)
 -->
<!-- Title: ProjectStructure Pages: 1 -->
<svg width="2347pt" height="494pt"
 viewBox="0.00 0.00 2347.00 494.00" xmlns="http://www.w3.org/2000/svg" xmlns:xlink="http://www.w3.org/1999/xlink">
<g id="graph0" class="graph" transform="scale(1 1) rotate(0) translate(4 490)">
<title>ProjectStructure</title>
<polygon fill="white" stroke="none" points="-4,4 -4,-490 2343.32,-490 2343.32,4 -4,4"/>
<!-- Diploma_Project -->
<g id="node1" class="node">
<title>Diploma_Project</title>
<path fill="#4c72b0" stroke="black" d="M1635.95,-486C1635.95,-486 1481.75,-486 1481.75,-486 1475.75,-486 1469.75,-480 1469.75,-474 1469.75,-474 1469.75,-441 1469.75,-441 1469.75,-435 1475.75,-429 1481.75,-429 1481.75,-429 1635.95,-429 1635.95,-429 1641.95,-429 1647.95,-435 1647.95,-441 1647.95,-441 1647.95,-474 1647.95,-474 1647.95,-480 1641.95,-486 1635.95,-486"/>
<text xml:space="preserve" text-anchor="middle" x="1558.85" y="-450.9" font-family="Arial" font-size="18.00" fill="white">Diploma_Project/</text>
</g>
<!-- Diploma_Project_data -->
<g id="node2" class="node">
<title>Diploma_Project_data</title>
<path fill="#55a868" stroke="black" d="M970.32,-343C970.32,-343 911.37,-343 911.37,-343 905.37,-343 899.37,-337 899.37,-331 899.37,-331 899.37,-298 899.37,-298 899.37,-292 905.37,-286 911.37,-286 911.37,-286 970.32,-286 970.32,-286 976.32,-286 982.32,-292 982.32,-298 982.32,-298 982.32,-331 982.32,-331 982.32,-337 976.32,-343 970.32,-343"/>
<text xml:space="preserve" text-anchor="middle" x="940.85" y="-307.9" font-family="Arial" font-size="18.00">data/</text>
</g>
<!-- Diploma_Project&#45;&gt;Diploma_Project_data -->
<g id="edge1" class="edge">
<title>Diploma_Project&#45;&gt;Diploma_Project_data</title>
<path fill="none" stroke="black" d="M1469.32,-436.07C1338.6,-406.25 1099.59,-351.72 993.72,-327.56"/>
<polygon fill="black" stroke="black" points="994.7,-324.2 984.17,-325.38 993.14,-331.02 994.7,-324.2"/>
</g>
<!-- Diploma_Project_eda -->
<g id="node17" class="node">
<title>Diploma_Project_eda</title>
<path fill="#55a868" stroke="black" d="M1325.7,-343C1325.7,-343 1272,-343 1272,-343 1266,-343 1260,-337 1260,-331 1260,-331 1260,-298 1260,-298 1260,-292 1266,-286 1272,-286 1272,-286 1325.7,-286 1325.7,-286 1331.7,-286 1337.7,-292 1337.7,-298 1337.7,-298 1337.7,-331 1337.7,-331 1337.7,-337 1331.7,-343 1325.7,-343"/>
<text xml:space="preserve" text-anchor="middle" x="1298.85" y="-307.9" font-family="Arial" font-size="18.00">eda/</text>
</g>
<!-- Diploma_Project&#45;&gt;Diploma_Project_eda -->
<g id="edge16" class="edge">
<title>Diploma_Project&#45;&gt;Diploma_Project_eda</title>
<path fill="none" stroke="black" d="M1507.48,-428.64C1461.12,-403.5 1393.37,-366.76 1347.78,-342.03"/>
<polygon fill="black" stroke="black" points="1349.62,-339.05 1339.16,-337.36 1346.28,-345.2 1349.62,-339.05"/>
</g>
<!-- Diploma_Project_notebooks -->
<g id="node20" class="node">
<title>Diploma_Project_notebooks</title>
<path fill="#55a868" stroke="black" d="M1513.95,-343C1513.95,-343 1407.75,-343 1407.75,-343 1401.75,-343 1395.75,-337 1395.75,-331 1395.75,-331 1395.75,-298 1395.75,-298 1395.75,-292 1401.75,-286 1407.75,-286 1407.75,-286 1513.95,-286 1513.95,-286 1519.95,-286 1525.95,-292 1525.95,-298 1525.95,-298 1525.95,-331 1525.95,-331 1525.95,-337 1519.95,-343 1513.95,-343"/>
<text xml:space="preserve" text-anchor="middle" x="1460.85" y="-307.9" font-family="Arial" font-size="18.00">notebooks/</text>
</g>
<!-- Diploma_Project&#45;&gt;Diploma_Project_notebooks -->
<g id="edge19" class="edge">
<title>Diploma_Project&#45;&gt;Diploma_Project_notebooks</title>
<path fill="none" stroke="black" d="M1539.49,-428.64C1524.39,-406.92 1503.27,-376.54 1486.72,-352.73"/>
<polygon fill="black" stroke="black" points="1489.62,-350.76 1481.04,-344.54 1483.87,-354.75 1489.62,-350.76"/>
</g>
<!-- Diploma_Project_presentation -->
<g id="node21" class="node">
<title>Diploma_Project_presentation</title>
<path fill="#55a868" stroke="black" d="M1717.82,-343C1717.82,-343 1595.88,-343 1595.88,-343 1589.88,-343 1583.88,-337 1583.88,-331 1583.88,-331 1583.88,-298 1583.88,-298 1583.88,-292 1589.88,-286 1595.88,-286 1595.88,-286 1717.82,-286 1717.82,-286 1723.82,-286 1729.82,-292 1729.82,-298 1729.82,-298 1729.82,-331 1729.82,-331 1729.82,-337 1723.82,-343 1717.82,-343"/>
<text xml:space="preserve" text-anchor="middle" x="1656.85" y="-307.9" font-family="Arial" font-size="18.00">presentation/</text>
</g>
<!-- Diploma_Project&#45;&gt;Diploma_Project_presentation -->
<g id="edge20" class="edge">
<title>Diploma_Project&#45;&gt;Diploma_Project_presentation</title>
<path fill="none" stroke="black" d="M1578.21,-428.64C1593.31,-406.92 1614.43,-376.54 1630.98,-352.73"/>
<polygon fill="black" stroke="black" points="1633.83,-354.75 1636.66,-344.54 1628.08,-350.76 1633.83,-354.75"/>
</g>
<!-- Diploma_Project_reports -->
<g id="node22" class="node">
<title>Diploma_Project_reports</title>
<path fill="#55a868" stroke="black" d="M1879.82,-343C1879.82,-343 1799.88,-343 1799.88,-343 1793.88,-343 1787.88,-337 1787.88,-331 1787.88,-331 1787.88,-298 1787.88,-298 1787.88,-292 1793.88,-286 1799.88,-286 1799.88,-286 1879.82,-286 1879.82,-286 1885.82,-286 1891.82,-292 1891.82,-298 1891.82,-298 1891.82,-331 1891.82,-331 1891.82,-337 1885.82,-343 1879.82,-343"/>
<text xml:space="preserve" text-anchor="middle" x="1839.85" y="-307.9" font-family="Arial" font-size="18.00">reports/</text>
</g>
<!-- Diploma_Project&#45;&gt;Diploma_Project_reports -->
<g id="edge21" class="edge">
<title>Diploma_Project&#45;&gt;Diploma_Project_reports</title>
<path fill="none" stroke="black" d="M1614.37,-428.64C1661.4,-405.04 1728.8,-371.22 1777.64,-346.71"/>
<polygon fill="black" stroke="black" points="1779.05,-349.92 1786.42,-342.31 1775.91,-343.67 1779.05,-349.92"/>
</g>
<!-- Diploma_Project_src -->
<g id="node24" class="node">
<title>Diploma_Project_src</title>
<path fill="#55a868" stroke="black" d="M2021.07,-343C2021.07,-343 1972.62,-343 1972.62,-343 1966.62,-343 1960.62,-337 1960.62,-331 1960.62,-331 1960.62,-298 1960.62,-298 1960.62,-292 1966.62,-286 1972.62,-286 1972.62,-286 2021.07,-286 2021.07,-286 2027.07,-286 2033.07,-292 2033.07,-298 2033.07,-298 2033.07,-331 2033.07,-331 2033.07,-337 2027.07,-343 2021.07,-343"/>
<text xml:space="preserve" text-anchor="middle" x="1996.85" y="-307.9" font-family="Arial" font-size="18.00">src/</text>
</g>
<!-- Diploma_Project&#45;&gt;Diploma_Project_src -->
<g id="edge23" class="edge">
<title>Diploma_Project&#45;&gt;Diploma_Project_src</title>
<path fill="none" stroke="black" d="M1648.09,-429.7C1721.57,-407.35 1828.33,-374.23 1920.85,-343 1930.12,-339.87 1939.98,-336.41 1949.41,-333.02"/>
<polygon fill="black" stroke="black" points="1950.6,-336.32 1958.82,-329.62 1948.22,-329.73 1950.6,-336.32"/>
</g>
<!-- Diploma_Project_data_interim -->
<g id="node3" class="node">
<title>Diploma_Project_data_interim</title>
<path fill="#64b5cd" stroke="black" d="M643.7,-200C643.7,-200 566,-200 566,-200 560,-200 554,-194 554,-188 554,-188 554,-155 554,-155 554,-149 560,-143 566,-143 566,-143 643.7,-143 643.7,-143 649.7,-143 655.7,-149 655.7,-155 655.7,-155 655.7,-188 655.7,-188 655.7,-194 649.7,-200 643.7,-200"/>
<text xml:space="preserve" text-anchor="middle" x="604.85" y="-164.9" font-family="Arial" font-size="18.00">interim/</text>
</g>
<!-- Diploma_Project_data&#45;&gt;Diploma_Project_data_interim -->
<g id="edge2" class="edge">
<title>Diploma_Project_data&#45;&gt;Diploma_Project_data_interim</title>
<path fill="none" stroke="black" d="M898.97,-295.93C840.53,-271.4 734.09,-226.74 666.55,-198.39"/>
<polygon fill="black" stroke="black" points="668.03,-195.22 657.46,-194.58 665.32,-201.67 668.03,-195.22"/>
</g>
<!-- Diploma_Project_data_processed -->
<g id="node4" class="node">
<title>Diploma_Project_data_processed</title>
<path fill="#64b5cd" stroke="black" d="M831.95,-200C831.95,-200 725.75,-200 725.75,-200 719.75,-200 713.75,-194 713.75,-188 713.75,-188 713.75,-155 713.75,-155 713.75,-149 719.75,-143 725.75,-143 725.75,-143 831.95,-143 831.95,-143 837.95,-143 843.95,-149 843.95,-155 843.95,-155 843.95,-188 843.95,-188 843.95,-194 837.95,-200 831.95,-200"/>
<text xml:space="preserve" text-anchor="middle" x="778.85" y="-164.9" font-family="Arial" font-size="18.00">processed/</text>
</g>
<!-- Diploma_Project_data&#45;&gt;Diploma_Project_data_processed -->
<g id="edge3" class="edge">
<title>Diploma_Project_data&#45;&gt;Diploma_Project_data_processed</title>
<path fill="none" stroke="black" d="M908.84,-285.64C883.22,-263.34 847.11,-231.91 819.45,-207.84"/>
<polygon fill="black" stroke="black" points="821.77,-205.22 811.93,-201.29 817.18,-210.5 821.77,-205.22"/>
</g>
<!-- Diploma_Project_data_raw -->
<g id="node5" class="node">
<title>Diploma_Project_data_raw</title>
<path fill="#64b5cd" stroke="black" d="M967.32,-200C967.32,-200 914.37,-200 914.37,-200 908.37,-200 902.37,-194 902.37,-188 902.37,-188 902.37,-155 902.37,-155 902.37,-149 908.37,-143 914.37,-143 914.37,-143 967.32,-143 967.32,-143 973.32,-143 979.32,-149 979.32,-155 979.32,-155 979.32,-188 979.32,-188 979.32,-194 973.32,-200 967.32,-200"/>
<text xml:space="preserve" text-anchor="middle" x="940.85" y="-164.9" font-family="Arial" font-size="18.00">raw/</text>
</g>
<!-- Diploma_Project_data&#45;&gt;Diploma_Project_data_raw -->
<g id="edge4" class="edge">
<title>Diploma_Project_data&#45;&gt;Diploma_Project_data_raw</title>
<path fill="none" stroke="black" d="M940.85,-285.64C940.85,-264.5 940.85,-235.15 940.85,-211.65"/>
<polygon fill="black" stroke="black" points="944.35,-211.81 940.85,-201.81 937.35,-211.81 944.35,-211.81"/>
</g>
<!-- Diploma_Project_data_stage_outputs -->
<g id="node6" class="node">
<title>Diploma_Project_data_stage_outputs</title>
<path fill="#64b5cd" stroke="black" d="M1185.95,-200C1185.95,-200 1049.75,-200 1049.75,-200 1043.75,-200 1037.75,-194 1037.75,-188 1037.75,-188 1037.75,-155 1037.75,-155 1037.75,-149 1043.75,-143 1049.75,-143 1049.75,-143 1185.95,-143 1185.95,-143 1191.95,-143 1197.95,-149 1197.95,-155 1197.95,-155 1197.95,-188 1197.95,-188 1197.95,-194 1191.95,-200 1185.95,-200"/>
<text xml:space="preserve" text-anchor="middle" x="1117.85" y="-164.9" font-family="Arial" font-size="18.00">stage_outputs/</text>
</g>
<!-- Diploma_Project_data&#45;&gt;Diploma_Project_data_stage_outputs -->
<g id="edge5" class="edge">
<title>Diploma_Project_data&#45;&gt;Diploma_Project_data_stage_outputs</title>
<path fill="none" stroke="black" d="M975.82,-285.64C1004.06,-263.14 1043.96,-231.37 1074.27,-207.21"/>
<polygon fill="black" stroke="black" points="1076.13,-210.21 1081.77,-201.24 1071.77,-204.74 1076.13,-210.21"/>
</g>
<!-- Diploma_Project_data_stage_outputs_stage10_submission -->
<g id="node7" class="node">
<title>Diploma_Project_data_stage_outputs_stage10_submission</title>
<path fill="#64b5cd" stroke="black" d="M197.7,-57C197.7,-57 12,-57 12,-57 6,-57 0,-51 0,-45 0,-45 0,-12 0,-12 0,-6 6,0 12,0 12,0 197.7,0 197.7,0 203.7,0 209.7,-6 209.7,-12 209.7,-12 209.7,-45 209.7,-45 209.7,-51 203.7,-57 197.7,-57"/>
<text xml:space="preserve" text-anchor="middle" x="104.85" y="-21.9" font-family="Arial" font-size="18.00">stage10_submission/</text>
</g>
<!-- Diploma_Project_data_stage_outputs&#45;&gt;Diploma_Project_data_stage_outputs_stage10_submission -->
<g id="edge6" class="edge">
<title>Diploma_Project_data_stage_outputs&#45;&gt;Diploma_Project_data_stage_outputs_stage10_submission</title>
<path fill="none" stroke="black" d="M1037.32,-149.06C1027.43,-146.81 1017.44,-144.73 1007.85,-143 669.39,-82.05 578.53,-110.74 238.85,-57 232.99,-56.07 226.99,-55.06 220.94,-54"/>
<polygon fill="black" stroke="black" points="221.97,-50.63 211.51,-52.29 220.73,-57.52 221.97,-50.63"/>
</g>
<!-- Diploma_Project_data_stage_outputs_stage1_data -->
<g id="node8" class="node">
<title>Diploma_Project_data_stage_outputs_stage1_data</title>
<path fill="#64b5cd" stroke="black" d="M401.82,-57C401.82,-57 279.87,-57 279.87,-57 273.87,-57 267.87,-51 267.87,-45 267.87,-45 267.87,-12 267.87,-12 267.87,-6 273.87,0 279.87,0 279.87,0 401.82,0 401.82,0 407.82,0 413.82,-6 413.82,-12 413.82,-12 413.82,-45 413.82,-45 413.82,-51 407.82,-57 401.82,-57"/>
<text xml:space="preserve" text-anchor="middle" x="340.85" y="-21.9" font-family="Arial" font-size="18.00">stage1_data/</text>
</g>
<!-- Diploma_Project_data_stage_outputs&#45;&gt;Diploma_Project_data_stage_outputs_stage1_data -->
<g id="edge7" class="edge">
<title>Diploma_Project_data_stage_outputs&#45;&gt;Diploma_Project_data_stage_outputs_stage1_data</title>
<path fill="none" stroke="black" d="M1037.55,-149.5C1027.58,-147.17 1017.5,-144.94 1007.85,-143 758.81,-93.03 691.42,-109.25 442.85,-57 437.02,-55.77 431.02,-54.42 425,-52.98"/>
<polygon fill="black" stroke="black" points="426.17,-49.66 415.62,-50.68 424.5,-56.46 426.17,-49.66"/>
</g>
<!-- Diploma_Project_data_stage_outputs_stage2_eda -->
<g id="node9" class="node">
<title>Diploma_Project_data_stage_outputs_stage2_eda</title>
<path fill="#64b5cd" stroke="black" d="M600.2,-57C600.2,-57 483.5,-57 483.5,-57 477.5,-57 471.5,-51 471.5,-45 471.5,-45 471.5,-12 471.5,-12 471.5,-6 477.5,0 483.5,0 483.5,0 600.2,0 600.2,0 606.2,0 612.2,-6 612.2,-12 612.2,-12 612.2,-45 612.2,-45 612.2,-51 606.2,-57 600.2,-57"/>
<text xml:space="preserve" text-anchor="middle" x="541.85" y="-21.9" font-family="Arial" font-size="18.00">stage2_eda/</text>
</g>
<!-- Diploma_Project_data_stage_outputs&#45;&gt;Diploma_Project_data_stage_outputs_stage2_eda -->
<g id="edge8" class="edge">
<title>Diploma_Project_data_stage_outputs&#45;&gt;Diploma_Project_data_stage_outputs_stage2_eda</title>
<path fill="none" stroke="black" d="M1037.38,-150.24C1027.44,-147.78 1017.42,-145.32 1007.85,-143 845.46,-103.62 803.77,-98.27 641.85,-57 635.91,-55.49 629.77,-53.89 623.61,-52.25"/>
<polygon fill="black" stroke="black" points="624.54,-48.88 613.97,-49.68 622.73,-55.64 624.54,-48.88"/>
</g>
<!-- Diploma_Project_data_stage_outputs_stage3_baseline -->
<g id="node10" class="node">
<title>Diploma_Project_data_stage_outputs_stage3_baseline</title>
<path fill="#64b5cd" stroke="black" d="M835.2,-57C835.2,-57 682.5,-57 682.5,-57 676.5,-57 670.5,-51 670.5,-45 670.5,-45 670.5,-12 670.5,-12 670.5,-6 676.5,0 682.5,0 682.5,0 835.2,0 835.2,0 841.2,0 847.2,-6 847.2,-12 847.2,-12 847.2,-45 847.2,-45 847.2,-51 841.2,-57 835.2,-57"/>
<text xml:space="preserve" text-anchor="middle" x="758.85" y="-21.9" font-family="Arial" font-size="18.00">stage3_baseline/</text>
</g>
<!-- Diploma_Project_data_stage_outputs&#45;&gt;Diploma_Project_data_stage_outputs_stage3_baseline -->
<g id="edge9" class="edge">
<title>Diploma_Project_data_stage_outputs&#45;&gt;Diploma_Project_data_stage_outputs_stage3_baseline</title>
<path fill="none" stroke="black" d="M1046.92,-142.64C987.52,-119.31 902.72,-86 840.5,-61.57"/>
<polygon fill="black" stroke="black" points="841.93,-58.37 831.34,-57.97 839.37,-64.89 841.93,-58.37"/>
</g>
<!-- Diploma_Project_data_stage_outputs_stage4_bivariate -->
<g id="node11" class="node">
<title>Diploma_Project_data_stage_outputs_stage4_bivariate</title>
<path fill="#64b5cd" stroke="black" d="M1070.95,-57C1070.95,-57 916.75,-57 916.75,-57 910.75,-57 904.75,-51 904.75,-45 904.75,-45 904.75,-12 904.75,-12 904.75,-6 910.75,0 916.75,0 916.75,0 1070.95,0 1070.95,0 1076.95,0 1082.95,-6 1082.95,-12 1082.95,-12 1082.95,-45 1082.95,-45 1082.95,-51 1076.95,-57 1070.95,-57"/>
<text xml:space="preserve" text-anchor="middle" x="993.85" y="-21.9" font-family="Arial" font-size="18.00">stage4_bivariate/</text>
</g>
<!-- Diploma_Project_data_stage_outputs&#45;&gt;Diploma_Project_data_stage_outputs_stage4_bivariate -->
<g id="edge10" class="edge">
<title>Diploma_Project_data_stage_outputs&#45;&gt;Diploma_Project_data_stage_outputs_stage4_bivariate</title>
<path fill="none" stroke="black" d="M1093.35,-142.64C1073.99,-120.63 1046.81,-89.73 1025.75,-65.78"/>
<polygon fill="black" stroke="black" points="1028.53,-63.63 1019.3,-58.44 1023.27,-68.26 1028.53,-63.63"/>
</g>
<!-- Diploma_Project_data_stage_outputs_stage5_multivariate -->
<g id="node12" class="node">
<title>Diploma_Project_data_stage_outputs_stage5_multivariate</title>
<path fill="#64b5cd" stroke="black" d="M1330.95,-57C1330.95,-57 1152.75,-57 1152.75,-57 1146.75,-57 1140.75,-51 1140.75,-45 1140.75,-45 1140.75,-12 1140.75,-12 1140.75,-6 1146.75,0 1152.75,0 1152.75,0 1330.95,0 1330.95,0 1336.95,0 1342.95,-6 1342.95,-12 1342.95,-12 1342.95,-45 1342.95,-45 1342.95,-51 1336.95,-57 1330.95,-57"/>
<text xml:space="preserve" text-anchor="middle" x="1241.85" y="-21.9" font-family="Arial" font-size="18.00">stage5_multivariate/</text>
</g>
<!-- Diploma_Project_data_stage_outputs&#45;&gt;Diploma_Project_data_stage_outputs_stage5_multivariate -->
<g id="edge11" class="edge">
<title>Diploma_Project_data_stage_outputs&#45;&gt;Diploma_Project_data_stage_outputs_stage5_multivariate</title>
<path fill="none" stroke="black" d="M1142.35,-142.64C1161.71,-120.63 1188.89,-89.73 1209.95,-65.78"/>
<polygon fill="black" stroke="black" points="1212.43,-68.26 1216.4,-58.44 1207.17,-63.63 1212.43,-68.26"/>
</g>
<!-- Diploma_Project_data_stage_outputs_stage6_features -->
<g id="node13" class="node">
<title>Diploma_Project_data_stage_outputs_stage6_features</title>
<path fill="#64b5cd" stroke="black" d="M1564.82,-57C1564.82,-57 1412.88,-57 1412.88,-57 1406.88,-57 1400.88,-51 1400.88,-45 1400.88,-45 1400.88,-12 1400.88,-12 1400.88,-6 1406.88,0 1412.88,0 1412.88,0 1564.82,0 1564.82,0 1570.82,0 1576.82,-6 1576.82,-12 1576.82,-12 1576.82,-45 1576.82,-45 1576.82,-51 1570.82,-57 1564.82,-57"/>
<text xml:space="preserve" text-anchor="middle" x="1488.85" y="-21.9" font-family="Arial" font-size="18.00">stage6_features/</text>
</g>
<!-- Diploma_Project_data_stage_outputs&#45;&gt;Diploma_Project_data_stage_outputs_stage6_features -->
<g id="edge12" class="edge">
<title>Diploma_Project_data_stage_outputs&#45;&gt;Diploma_Project_data_stage_outputs_stage6_features</title>
<path fill="none" stroke="black" d="M1191.15,-142.64C1252.66,-119.27 1340.54,-85.87 1404.87,-61.42"/>
<polygon fill="black" stroke="black" points="1405.87,-64.78 1413.97,-57.96 1403.38,-58.24 1405.87,-64.78"/>
</g>
<!-- Diploma_Project_data_stage_outputs_stage7_models -->
<g id="node14" class="node">
<title>Diploma_Project_data_stage_outputs_stage7_models</title>
<path fill="#64b5cd" stroke="black" d="M1791.07,-57C1791.07,-57 1646.62,-57 1646.62,-57 1640.62,-57 1634.62,-51 1634.62,-45 1634.62,-45 1634.62,-12 1634.62,-12 1634.62,-6 1640.62,0 1646.62,0 1646.62,0 1791.07,0 1791.07,0 1797.07,0 1803.07,-6 1803.07,-12 1803.07,-12 1803.07,-45 1803.07,-45 1803.07,-51 1797.07,-57 1791.07,-57"/>
<text xml:space="preserve" text-anchor="middle" x="1718.85" y="-21.9" font-family="Arial" font-size="18.00">stage7_models/</text>
</g>
<!-- Diploma_Project_data_stage_outputs&#45;&gt;Diploma_Project_data_stage_outputs_stage7_models -->
<g id="edge13" class="edge">
<title>Diploma_Project_data_stage_outputs&#45;&gt;Diploma_Project_data_stage_outputs_stage7_models</title>
<path fill="none" stroke="black" d="M1198.16,-150.01C1207.82,-147.61 1217.55,-145.23 1226.85,-143 1394.82,-102.76 1437.71,-96.53 1605.85,-57 1611.62,-55.64 1617.56,-54.23 1623.55,-52.81"/>
<polygon fill="black" stroke="black" points="1623.97,-56.3 1632.88,-50.57 1622.34,-49.5 1623.97,-56.3"/>
</g>
<!-- Diploma_Project_data_stage_outputs_stage8_optimization -->
<g id="node15" class="node">
<title>Diploma_Project_data_stage_outputs_stage8_optimization</title>
<path fill="#64b5cd" stroke="black" d="M2054.82,-57C2054.82,-57 1872.88,-57 1872.88,-57 1866.88,-57 1860.88,-51 1860.88,-45 1860.88,-45 1860.88,-12 1860.88,-12 1860.88,-6 1866.88,0 1872.88,0 1872.88,0 2054.82,0 2054.82,0 2060.82,0 2066.82,-6 2066.82,-12 2066.82,-12 2066.82,-45 2066.82,-45 2066.82,-51 2060.82,-57 2054.82,-57"/>
<text xml:space="preserve" text-anchor="middle" x="1963.85" y="-21.9" font-family="Arial" font-size="18.00">stage8_optimization/</text>
</g>
<!-- Diploma_Project_data_stage_outputs&#45;&gt;Diploma_Project_data_stage_outputs_stage8_optimization -->
<g id="edge14" class="edge">
<title>Diploma_Project_data_stage_outputs&#45;&gt;Diploma_Project_data_stage_outputs_stage8_optimization</title>
<path fill="none" stroke="black" d="M1198.29,-149.19C1207.88,-146.95 1217.56,-144.83 1226.85,-143 1493.34,-90.6 1564.33,-103.83 1831.85,-57 1837.69,-55.98 1843.66,-54.89 1849.68,-53.76"/>
<polygon fill="black" stroke="black" points="1849.92,-57.28 1859.08,-51.96 1848.6,-50.4 1849.92,-57.28"/>
</g>
<!-- Diploma_Project_data_stage_outputs_stage9_interpretation -->
<g id="node16" class="node">
<title>Diploma_Project_data_stage_outputs_stage9_interpretation</title>
<path fill="#64b5cd" stroke="black" d="M2327.32,-57C2327.32,-57 2136.38,-57 2136.38,-57 2130.38,-57 2124.38,-51 2124.38,-45 2124.38,-45 2124.38,-12 2124.38,-12 2124.38,-6 2130.38,0 2136.38,0 2136.38,0 2327.32,0 2327.32,0 2333.32,0 2339.32,-6 2339.32,-12 2339.32,-12 2339.32,-45 2339.32,-45 2339.32,-51 2333.32,-57 2327.32,-57"/>
<text xml:space="preserve" text-anchor="middle" x="2231.85" y="-21.9" font-family="Arial" font-size="18.00">stage9_interpretation/</text>
</g>
<!-- Diploma_Project_data_stage_outputs&#45;&gt;Diploma_Project_data_stage_outputs_stage9_interpretation -->
<g id="edge15" class="edge">
<title>Diploma_Project_data_stage_outputs&#45;&gt;Diploma_Project_data_stage_outputs_stage9_interpretation</title>
<path fill="none" stroke="black" d="M1198.22,-148.8C1207.82,-146.63 1217.53,-144.63 1226.85,-143 1609.17,-76.23 1712.05,-114.64 2095.85,-57 2101.44,-56.16 2107.15,-55.24 2112.9,-54.27"/>
<polygon fill="black" stroke="black" points="2113.27,-57.76 2122.52,-52.6 2112.07,-50.86 2113.27,-57.76"/>
</g>
<!-- Diploma_Project_eda_dicts -->
<g id="node18" class="node">
<title>Diploma_Project_eda_dicts</title>
<path fill="#64b5cd" stroke="black" d="M1329.45,-200C1329.45,-200 1268.25,-200 1268.25,-200 1262.25,-200 1256.25,-194 1256.25,-188 1256.25,-188 1256.25,-155 1256.25,-155 1256.25,-149 1262.25,-143 1268.25,-143 1268.25,-143 1329.45,-143 1329.45,-143 1335.45,-143 1341.45,-149 1341.45,-155 1341.45,-155 1341.45,-188 1341.45,-188 1341.45,-194 1335.45,-200 1329.45,-200"/>
<text xml:space="preserve" text-anchor="middle" x="1298.85" y="-164.9" font-family="Arial" font-size="18.00">dicts/</text>
</g>
<!-- Diploma_Project_eda&#45;&gt;Diploma_Project_eda_dicts -->
<g id="edge17" class="edge">
<title>Diploma_Project_eda&#45;&gt;Diploma_Project_eda_dicts</title>
<path fill="none" stroke="black" d="M1298.85,-285.64C1298.85,-264.5 1298.85,-235.15 1298.85,-211.65"/>
<polygon fill="black" stroke="black" points="1302.35,-211.81 1298.85,-201.81 1295.35,-211.81 1302.35,-211.81"/>
</g>
<!-- Diploma_Project_eda_plots -->
<g id="node19" class="node">
<title>Diploma_Project_eda_plots</title>
<path fill="#64b5cd" stroke="black" d="M1473.82,-200C1473.82,-200 1411.88,-200 1411.88,-200 1405.88,-200 1399.88,-194 1399.88,-188 1399.88,-188 1399.88,-155 1399.88,-155 1399.88,-149 1405.88,-143 1411.88,-143 1411.88,-143 1473.82,-143 1473.82,-143 1479.82,-143 1485.82,-149 1485.82,-155 1485.82,-155 1485.82,-188 1485.82,-188 1485.82,-194 1479.82,-200 1473.82,-200"/>
<text xml:space="preserve" text-anchor="middle" x="1442.85" y="-164.9" font-family="Arial" font-size="18.00">plots/</text>
</g>
<!-- Diploma_Project_eda&#45;&gt;Diploma_Project_eda_plots -->
<g id="edge18" class="edge">
<title>Diploma_Project_eda&#45;&gt;Diploma_Project_eda_plots</title>
<path fill="none" stroke="black" d="M1327.3,-285.64C1349.98,-263.43 1381.9,-232.18 1406.44,-208.15"/>
<polygon fill="black" stroke="black" points="1408.68,-210.86 1413.38,-201.36 1403.78,-205.85 1408.68,-210.86"/>
</g>
<!-- Diploma_Project_reports_figures -->
<g id="node23" class="node">
<title>Diploma_Project_reports_figures</title>
<path fill="#64b5cd" stroke="black" d="M1873.7,-200C1873.7,-200 1796,-200 1796,-200 1790,-200 1784,-194 1784,-188 1784,-188 1784,-155 1784,-155 1784,-149 1790,-143 1796,-143 1796,-143 1873.7,-143 1873.7,-143 1879.7,-143 1885.7,-149 1885.7,-155 1885.7,-155 1885.7,-188 1885.7,-188 1885.7,-194 1879.7,-200 1873.7,-200"/>
<text xml:space="preserve" text-anchor="middle" x="1834.85" y="-164.9" font-family="Arial" font-size="18.00">figures/</text>
</g>
<!-- Diploma_Project_reports&#45;&gt;Diploma_Project_reports_figures -->
<g id="edge22" class="edge">
<title>Diploma_Project_reports&#45;&gt;Diploma_Project_reports_figures</title>
<path fill="none" stroke="black" d="M1838.86,-285.64C1838.11,-264.5 1837.07,-235.15 1836.24,-211.65"/>
<polygon fill="black" stroke="black" points="1839.74,-211.68 1835.89,-201.81 1832.75,-211.93 1839.74,-211.68"/>
</g>
<!-- Diploma_Project_src_pipelines -->
<g id="node25" class="node">
<title>Diploma_Project_src_pipelines</title>
<path fill="#64b5cd" stroke="black" d="M2049.57,-200C2049.57,-200 1956.12,-200 1956.12,-200 1950.12,-200 1944.12,-194 1944.12,-188 1944.12,-188 1944.12,-155 1944.12,-155 1944.12,-149 1950.12,-143 1956.12,-143 1956.12,-143 2049.57,-143 2049.57,-143 2055.57,-143 2061.57,-149 2061.57,-155 2061.57,-155 2061.57,-188 2061.57,-188 2061.57,-194 2055.57,-200 2049.57,-200"/>
<text xml:space="preserve" text-anchor="middle" x="2002.85" y="-164.9" font-family="Arial" font-size="18.00">pipelines/</text>
</g>
<!-- Diploma_Project_src&#45;&gt;Diploma_Project_src_pipelines -->
<g id="edge24" class="edge">
<title>Diploma_Project_src&#45;&gt;Diploma_Project_src_pipelines</title>
<path fill="none" stroke="black" d="M1998.04,-285.64C1998.94,-264.5 2000.18,-235.15 2001.18,-211.65"/>
<polygon fill="black" stroke="black" points="2004.67,-211.95 2001.6,-201.81 1997.68,-211.65 2004.67,-211.95"/>
</g>
</g>
</svg>
