<?xml version="1.0" encoding="UTF-8" standalone="no"?>
<!DOCTYPE svg PUBLIC "-//W3C//DTD SVG 1.1//EN"
 "http://www.w3.org/Graphics/SVG/1.1/DTD/svg11.dtd">
<!-- Generated by graphviz version 15.0.0 (20260523.1842)
 -->
<!-- Title: ProjectStructure Pages: 1 -->
<svg width="864pt" height="158pt"
 viewBox="0.00 0.00 864.00 158.00" xmlns="http://www.w3.org/2000/svg" xmlns:xlink="http://www.w3.org/1999/xlink">
<g id="graph0" class="graph" transform="scale(0.225861 0.225861) rotate(0) translate(4 695.2)">
<title>ProjectStructure</title>
<polygon fill="white" stroke="none" points="-4,4 -4,-695.2 3821.36,-695.2 3821.36,4 -4,4"/>
<!-- root -->
<g id="node1" class="node">
<title>root</title>
<path fill="#4c72b0" stroke="black" d="M2964,-691.2C2964,-691.2 2772,-691.2 2772,-691.2 2766,-691.2 2760,-685.2 2760,-679.2 2760,-679.2 2760,-616.8 2760,-616.8 2760,-610.8 2766,-604.8 2772,-604.8 2772,-604.8 2964,-604.8 2964,-604.8 2970,-604.8 2976,-610.8 2976,-616.8 2976,-616.8 2976,-679.2 2976,-679.2 2976,-685.2 2970,-691.2 2964,-691.2"/>
<text xml:space="preserve" text-anchor="middle" x="2868" y="-639.85" font-family="Arial" font-size="22.00" fill="white">Diploma_Project/</text>
</g>
<!-- data -->
<g id="node2" class="node">
<title>data</title>
<path fill="#55a868" stroke="black" d="M1034,-388.8C1034,-388.8 842,-388.8 842,-388.8 836,-388.8 830,-382.8 830,-376.8 830,-376.8 830,-314.4 830,-314.4 830,-308.4 836,-302.4 842,-302.4 842,-302.4 1034,-302.4 1034,-302.4 1040,-302.4 1046,-308.4 1046,-314.4 1046,-314.4 1046,-376.8 1046,-376.8 1046,-382.8 1040,-388.8 1034,-388.8"/>
<text xml:space="preserve" text-anchor="middle" x="938" y="-337.45" font-family="Arial" font-size="22.00">data/</text>
</g>
<!-- root&#45;&gt;data -->
<g id="edge1" class="edge">
<title>root&#45;&gt;data</title>
<path fill="none" stroke="black" d="M2759.75,-630.15C2424.83,-578.02 1407.05,-419.61 1057.42,-365.19"/>
<polygon fill="black" stroke="black" points="1058.19,-361.76 1047.77,-363.69 1057.11,-368.68 1058.19,-361.76"/>
</g>
<!-- notebooks -->
<g id="node3" class="node">
<title>notebooks</title>
<path fill="#55a868" stroke="black" d="M1863,-388.8C1863,-388.8 1671,-388.8 1671,-388.8 1665,-388.8 1659,-382.8 1659,-376.8 1659,-376.8 1659,-314.4 1659,-314.4 1659,-308.4 1665,-302.4 1671,-302.4 1671,-302.4 1863,-302.4 1863,-302.4 1869,-302.4 1875,-308.4 1875,-314.4 1875,-314.4 1875,-376.8 1875,-376.8 1875,-382.8 1869,-388.8 1863,-388.8"/>
<text xml:space="preserve" text-anchor="middle" x="1767" y="-337.45" font-family="Arial" font-size="22.00">notebooks/</text>
</g>
<!-- root&#45;&gt;notebooks -->
<g id="edge2" class="edge">
<title>root&#45;&gt;notebooks</title>
<path fill="none" stroke="black" d="M2759.67,-617.44C2552.51,-560.92 2101.67,-437.91 1886.25,-379.14"/>
<polygon fill="black" stroke="black" points="1887.26,-375.79 1876.69,-376.53 1885.42,-382.54 1887.26,-375.79"/>
</g>
<!-- src -->
<g id="node4" class="node">
<title>src</title>
<path fill="#55a868" stroke="black" d="M2813,-388.8C2813,-388.8 2621,-388.8 2621,-388.8 2615,-388.8 2609,-382.8 2609,-376.8 2609,-376.8 2609,-314.4 2609,-314.4 2609,-308.4 2615,-302.4 2621,-302.4 2621,-302.4 2813,-302.4 2813,-302.4 2819,-302.4 2825,-308.4 2825,-314.4 2825,-314.4 2825,-376.8 2825,-376.8 2825,-382.8 2819,-388.8 2813,-388.8"/>
<text xml:space="preserve" text-anchor="middle" x="2717" y="-337.45" font-family="Arial" font-size="22.00">src/</text>
</g>
<!-- root&#45;&gt;src -->
<g id="edge3" class="edge">
<title>root&#45;&gt;src</title>
<path fill="none" stroke="black" d="M2846.69,-604.6C2819.61,-550.74 2772.9,-457.8 2743.54,-399.4"/>
<polygon fill="black" stroke="black" points="2746.75,-397.99 2739.13,-390.62 2740.49,-401.13 2746.75,-397.99"/>
</g>
<!-- reports -->
<g id="node5" class="node">
<title>reports</title>
<path fill="#55a868" stroke="black" d="M3115,-388.8C3115,-388.8 2923,-388.8 2923,-388.8 2917,-388.8 2911,-382.8 2911,-376.8 2911,-376.8 2911,-314.4 2911,-314.4 2911,-308.4 2917,-302.4 2923,-302.4 2923,-302.4 3115,-302.4 3115,-302.4 3121,-302.4 3127,-308.4 3127,-314.4 3127,-314.4 3127,-376.8 3127,-376.8 3127,-382.8 3121,-388.8 3115,-388.8"/>
<text xml:space="preserve" text-anchor="middle" x="3019" y="-337.45" font-family="Arial" font-size="22.00">reports/</text>
</g>
<!-- root&#45;&gt;reports -->
<g id="edge4" class="edge">
<title>root&#45;&gt;reports</title>
<path fill="none" stroke="black" d="M2889.31,-604.6C2916.39,-550.74 2963.1,-457.8 2992.46,-399.4"/>
<polygon fill="black" stroke="black" points="2995.51,-401.13 2996.87,-390.62 2989.25,-397.99 2995.51,-401.13"/>
</g>
<!-- presentation -->
<g id="node6" class="node">
<title>presentation</title>
<path fill="#55a868" stroke="black" d="M3417,-388.8C3417,-388.8 3225,-388.8 3225,-388.8 3219,-388.8 3213,-382.8 3213,-376.8 3213,-376.8 3213,-314.4 3213,-314.4 3213,-308.4 3219,-302.4 3225,-302.4 3225,-302.4 3417,-302.4 3417,-302.4 3423,-302.4 3429,-308.4 3429,-314.4 3429,-314.4 3429,-376.8 3429,-376.8 3429,-382.8 3423,-388.8 3417,-388.8"/>
<text xml:space="preserve" text-anchor="middle" x="3321" y="-337.45" font-family="Arial" font-size="22.00">presentation/</text>
</g>
<!-- root&#45;&gt;presentation -->
<g id="edge5" class="edge">
<title>root&#45;&gt;presentation</title>
<path fill="none" stroke="black" d="M2931.94,-604.6C3015.01,-549.51 3159.72,-453.55 3247.31,-395.47"/>
<polygon fill="black" stroke="black" points="3248.99,-398.55 3255.39,-390.11 3245.12,-392.72 3248.99,-398.55"/>
</g>
<!-- files -->
<g id="node7" class="node">
<title>files</title>
<path fill="#64b5cd" stroke="black" d="M3719,-388.8C3719,-388.8 3527,-388.8 3527,-388.8 3521,-388.8 3515,-382.8 3515,-376.8 3515,-376.8 3515,-314.4 3515,-314.4 3515,-308.4 3521,-302.4 3527,-302.4 3527,-302.4 3719,-302.4 3719,-302.4 3725,-302.4 3731,-308.4 3731,-314.4 3731,-314.4 3731,-376.8 3731,-376.8 3731,-382.8 3725,-388.8 3719,-388.8"/>
<text xml:space="preserve" text-anchor="middle" x="3623" y="-350.2" font-family="Arial" font-size="22.00">README.md</text>
<text xml:space="preserve" text-anchor="middle" x="3623" y="-324.7" font-family="Arial" font-size="22.00">requirements.txt</text>
</g>
<!-- root&#45;&gt;files -->
<g id="edge6" class="edge">
<title>root&#45;&gt;files</title>
<path fill="none" stroke="black" d="M2974.97,-604.44C3115.2,-548.64 3360.37,-451.1 3505.59,-393.31"/>
<polygon fill="black" stroke="black" points="3506.47,-396.73 3514.47,-389.78 3503.88,-390.23 3506.47,-396.73"/>
</g>
<!-- data&#45;&gt;notebooks -->
<!-- raw -->
<g id="node9" class="node">
<title>raw</title>
<path fill="#55a868" stroke="black" d="M204,-86.4C204,-86.4 12,-86.4 12,-86.4 6,-86.4 0,-80.4 0,-74.4 0,-74.4 0,-12 0,-12 0,-6 6,0 12,0 12,0 204,0 204,0 210,0 216,-6 216,-12 216,-12 216,-74.4 216,-74.4 216,-80.4 210,-86.4 204,-86.4"/>
<text xml:space="preserve" text-anchor="middle" x="108" y="-35.05" font-family="Arial" font-size="22.00">raw/</text>
</g>
<!-- data&#45;&gt;raw -->
<g id="edge13" class="edge">
<title>data&#45;&gt;raw</title>
<path fill="none" stroke="black" d="M829.92,-305.48C674.3,-249.16 388.14,-145.59 226.78,-87.19"/>
<polygon fill="black" stroke="black" points="228.35,-84.03 217.75,-83.92 225.96,-90.62 228.35,-84.03"/>
</g>
<!-- processed -->
<g id="node10" class="node">
<title>processed</title>
<path fill="#55a868" stroke="black" d="M506,-86.4C506,-86.4 314,-86.4 314,-86.4 308,-86.4 302,-80.4 302,-74.4 302,-74.4 302,-12 302,-12 302,-6 308,0 314,0 314,0 506,0 506,0 512,0 518,-6 518,-12 518,-12 518,-74.4 518,-74.4 518,-80.4 512,-86.4 506,-86.4"/>
<text xml:space="preserve" text-anchor="middle" x="410" y="-35.05" font-family="Arial" font-size="22.00">processed/</text>
</g>
<!-- data&#45;&gt;processed -->
<g id="edge14" class="edge">
<title>data&#45;&gt;processed</title>
<path fill="none" stroke="black" d="M863.19,-302.04C766,-246.74 596.75,-150.45 494.87,-92.48"/>
<polygon fill="black" stroke="black" points="496.65,-89.47 486.23,-87.57 493.19,-95.56 496.65,-89.47"/>
</g>
<!-- notebooks&#45;&gt;src -->
<!-- 01_Data_Understanding.ipynb -->
<g id="node11" class="node">
<title>01_Data_Understanding.ipynb</title>
<polygon fill="#c44e52" stroke="black" points="879.85,-86.4 604.15,-86.4 604.15,0 885.85,0 885.85,-80.4 879.85,-86.4"/>
<polyline fill="none" stroke="black" points="879.85,-86.4 879.85,-80.4"/>
<polyline fill="none" stroke="black" points="885.85,-80.4 879.85,-80.4"/>
<text xml:space="preserve" text-anchor="middle" x="745" y="-36.6" font-family="Arial" font-size="18.00">01_Data_Understanding.ipynb</text>
</g>
<!-- notebooks&#45;&gt;01_Data_Understanding.ipynb -->
<g id="edge15" class="edge">
<title>notebooks&#45;&gt;01_Data_Understanding.ipynb</title>
<path fill="none" stroke="black" d="M1658.6,-312.74C1475.77,-259 1105.71,-150.22 897.03,-88.89"/>
<polygon fill="black" stroke="black" points="898.02,-85.53 887.44,-86.07 896.04,-92.25 898.02,-85.53"/>
</g>
<!-- 02_EDA.ipynb -->
<g id="node12" class="node">
<title>02_EDA.ipynb</title>
<polygon fill="#c44e52" stroke="black" points="1182,-86.4 972,-86.4 972,0 1188,0 1188,-80.4 1182,-86.4"/>
<polyline fill="none" stroke="black" points="1182,-86.4 1182,-80.4"/>
<polyline fill="none" stroke="black" points="1188,-80.4 1182,-80.4"/>
<text xml:space="preserve" text-anchor="middle" x="1080" y="-36.6" font-family="Arial" font-size="18.00">02_EDA.ipynb</text>
</g>
<!-- notebooks&#45;&gt;02_EDA.ipynb -->
<g id="edge16" class="edge">
<title>notebooks&#45;&gt;02_EDA.ipynb</title>
<path fill="none" stroke="black" d="M1669.66,-302.04C1542.44,-246.41 1320.31,-149.28 1188.02,-91.43"/>
<polygon fill="black" stroke="black" points="1189.43,-88.23 1178.86,-87.43 1186.62,-94.64 1189.43,-88.23"/>
</g>
<!-- 03_Feature_Engineering.ipynb -->
<g id="node13" class="node">
<title>03_Feature_Engineering.ipynb</title>
<polygon fill="#c44e52" stroke="black" points="1552.35,-86.4 1273.65,-86.4 1273.65,0 1558.35,0 1558.35,-80.4 1552.35,-86.4"/>
<polyline fill="none" stroke="black" points="1552.35,-86.4 1552.35,-80.4"/>
<polyline fill="none" stroke="black" points="1558.35,-80.4 1552.35,-80.4"/>
<text xml:space="preserve" text-anchor="middle" x="1416" y="-36.6" font-family="Arial" font-size="18.00">03_Feature_Engineering.ipynb</text>
</g>
<!-- notebooks&#45;&gt;03_Feature_Engineering.ipynb -->
<g id="edge17" class="edge">
<title>notebooks&#45;&gt;03_Feature_Engineering.ipynb</title>
<path fill="none" stroke="black" d="M1717.45,-302.2C1653.48,-247.45 1542.32,-152.31 1474.34,-94.13"/>
<polygon fill="black" stroke="black" points="1476.88,-91.7 1467.01,-87.86 1472.33,-97.02 1476.88,-91.7"/>
</g>
<!-- 04_Baseline_Model.ipynb -->
<g id="node14" class="node">
<title>04_Baseline_Model.ipynb</title>
<polygon fill="#c44e52" stroke="black" points="1883.47,-86.4 1644.53,-86.4 1644.53,0 1889.47,0 1889.47,-80.4 1883.47,-86.4"/>
<polyline fill="none" stroke="black" points="1883.47,-86.4 1883.47,-80.4"/>
<polyline fill="none" stroke="black" points="1889.47,-80.4 1883.47,-80.4"/>
<text xml:space="preserve" text-anchor="middle" x="1767" y="-36.6" font-family="Arial" font-size="18.00">04_Baseline_Model.ipynb</text>
</g>
<!-- notebooks&#45;&gt;04_Baseline_Model.ipynb -->
<g id="edge18" class="edge">
<title>notebooks&#45;&gt;04_Baseline_Model.ipynb</title>
<path fill="none" stroke="black" d="M1767,-302.2C1767,-248.67 1767,-156.55 1767,-98.09"/>
<polygon fill="black" stroke="black" points="1770.5,-98.39 1767,-88.39 1763.5,-98.39 1770.5,-98.39"/>
</g>
<!-- 05_Advanced_Models.ipynb -->
<g id="node15" class="node">
<title>05_Advanced_Models.ipynb</title>
<polygon fill="#c44e52" stroke="black" points="2234.6,-86.4 1975.4,-86.4 1975.4,0 2240.6,0 2240.6,-80.4 2234.6,-86.4"/>
<polyline fill="none" stroke="black" points="2234.6,-86.4 2234.6,-80.4"/>
<polyline fill="none" stroke="black" points="2240.6,-80.4 2234.6,-80.4"/>
<text xml:space="preserve" text-anchor="middle" x="2108" y="-36.6" font-family="Arial" font-size="18.00">05_Advanced_Models.ipynb</text>
</g>
<!-- notebooks&#45;&gt;05_Advanced_Models.ipynb -->
<g id="edge19" class="edge">
<title>notebooks&#45;&gt;05_Advanced_Models.ipynb</title>
<path fill="none" stroke="black" d="M1815.13,-302.2C1877.28,-247.45 1985.28,-152.31 2051.32,-94.13"/>
<polygon fill="black" stroke="black" points="2053.23,-97.11 2058.42,-87.87 2048.61,-91.86 2053.23,-97.11"/>
</g>
<!-- 06_Model_Interpretation.ipynb -->
<g id="node16" class="node">
<title>06_Model_Interpretation.ipynb</title>
<polygon fill="#c44e52" stroke="black" points="2603.22,-86.4 2326.78,-86.4 2326.78,0 2609.22,0 2609.22,-80.4 2603.22,-86.4"/>
<polyline fill="none" stroke="black" points="2603.22,-86.4 2603.22,-80.4"/>
<polyline fill="none" stroke="black" points="2609.22,-80.4 2603.22,-80.4"/>
<text xml:space="preserve" text-anchor="middle" x="2468" y="-36.6" font-family="Arial" font-size="18.00">06_Model_Interpretation.ipynb</text>
</g>
<!-- notebooks&#45;&gt;06_Model_Interpretation.ipynb -->
<g id="edge20" class="edge">
<title>notebooks&#45;&gt;06_Model_Interpretation.ipynb</title>
<path fill="none" stroke="black" d="M1866.32,-302.04C1996.26,-246.35 2223.24,-149.09 2358.18,-91.26"/>
<polygon fill="black" stroke="black" points="2359.33,-94.58 2367.15,-87.42 2356.58,-88.14 2359.33,-94.58"/>
</g>
<!-- src&#45;&gt;reports -->
<!-- preprocessing.py -->
<g id="node17" class="node">
<title>preprocessing.py</title>
<polygon fill="#8172b2" stroke="black" points="2905,-86.4 2695,-86.4 2695,0 2911,0 2911,-80.4 2905,-86.4"/>
<polyline fill="none" stroke="black" points="2905,-86.4 2905,-80.4"/>
<polyline fill="none" stroke="black" points="2911,-80.4 2905,-80.4"/>
<text xml:space="preserve" text-anchor="middle" x="2803" y="-36.6" font-family="Arial" font-size="18.00">preprocessing.py</text>
</g>
<!-- src&#45;&gt;preprocessing.py -->
<g id="edge21" class="edge">
<title>src&#45;&gt;preprocessing.py</title>
<path fill="none" stroke="black" d="M2729.14,-302.2C2744.49,-248.56 2770.94,-156.17 2787.68,-97.73"/>
<polygon fill="black" stroke="black" points="2790.98,-98.9 2790.37,-88.33 2784.25,-96.98 2790.98,-98.9"/>
</g>
<!-- features.py -->
<g id="node18" class="node">
<title>features.py</title>
<polygon fill="#8172b2" stroke="black" points="3207,-86.4 2997,-86.4 2997,0 3213,0 3213,-80.4 3207,-86.4"/>
<polyline fill="none" stroke="black" points="3207,-86.4 3207,-80.4"/>
<polyline fill="none" stroke="black" points="3213,-80.4 3207,-80.4"/>
<text xml:space="preserve" text-anchor="middle" x="3105" y="-36.6" font-family="Arial" font-size="18.00">features.py</text>
</g>
<!-- src&#45;&gt;features.py -->
<g id="edge22" class="edge">
<title>src&#45;&gt;features.py</title>
<path fill="none" stroke="black" d="M2771.77,-302.2C2842.63,-247.34 2965.86,-151.92 3040.97,-93.77"/>
<polygon fill="black" stroke="black" points="3042.92,-96.69 3048.69,-87.8 3038.64,-91.15 3042.92,-96.69"/>
</g>
<!-- models.py -->
<g id="node19" class="node">
<title>models.py</title>
<polygon fill="#8172b2" stroke="black" points="3509,-86.4 3299,-86.4 3299,0 3515,0 3515,-80.4 3509,-86.4"/>
<polyline fill="none" stroke="black" points="3509,-86.4 3509,-80.4"/>
<polyline fill="none" stroke="black" points="3515,-80.4 3509,-80.4"/>
<text xml:space="preserve" text-anchor="middle" x="3407" y="-36.6" font-family="Arial" font-size="18.00">models.py</text>
</g>
<!-- src&#45;&gt;models.py -->
<g id="edge23" class="edge">
<title>src&#45;&gt;models.py</title>
<path fill="none" stroke="black" d="M2814.76,-302.04C2942.67,-246.35 3166.08,-149.09 3298.9,-91.26"/>
<polygon fill="black" stroke="black" points="3299.94,-94.63 3307.71,-87.43 3297.14,-88.21 3299.94,-94.63"/>
</g>
<!-- reports&#45;&gt;presentation -->
<!-- figures -->
<g id="node20" class="node">
<title>figures</title>
<path fill="#ccb974" stroke="black" d="M3805,-86.4C3805,-86.4 3613,-86.4 3613,-86.4 3607,-86.4 3601,-80.4 3601,-74.4 3601,-74.4 3601,-12 3601,-12 3601,-6 3607,0 3613,0 3613,0 3805,0 3805,0 3811,0 3817,-6 3817,-12 3817,-12 3817,-74.4 3817,-74.4 3817,-80.4 3811,-86.4 3805,-86.4"/>
<text xml:space="preserve" text-anchor="middle" x="3709" y="-35.05" font-family="Arial" font-size="22.00">figures/</text>
</g>
<!-- reports&#45;&gt;figures -->
<g id="edge24" class="edge">
<title>reports&#45;&gt;figures</title>
<path fill="none" stroke="black" d="M3116.76,-302.04C3244.67,-246.35 3468.08,-149.09 3600.9,-91.26"/>
<polygon fill="black" stroke="black" points="3601.94,-94.63 3609.71,-87.43 3599.14,-88.21 3601.94,-94.63"/>
</g>
<!-- presentation&#45;&gt;files -->
<!-- dummy -->
<!-- files&#45;&gt;dummy -->
</g>
</svg>
